<?xml version="1.0" encoding="utf-8"?>
<!-- Generator: Adobe Illustrator 16.0.3, SVG Export Plug-In . SVG Version: 6.00 Build 0)  -->
<!DOCTYPE svg PUBLIC "-//W3C//DTD SVG 1.1//EN" "http://www.w3.org/Graphics/SVG/1.1/DTD/svg11.dtd">
<svg version="1.1" id="Vrstva_1" xmlns="http://www.w3.org/2000/svg" xmlns:xlink="http://www.w3.org/1999/xlink" x="0px" y="0px"
	 width="85.04px" height="85.04px" viewBox="0 0 85.04 85.04" style="enable-background:new 0 0 85.04 85.04;" xml:space="preserve"
	>
<style type="text/css">
<![CDATA[
	.st0{fill:#502ca0;}
	.st1{fill:#FFFFFF;}
]]>
</style>
<rect x="0" y="0" class="st0" width="85.039" height="85.038"/>
<g>
	<path class="st1" d="M63.713,54.708V27.421c-0.01-0.081-0.02-0.166-0.02-0.257c0-0.085,0.006-0.17,0.02-0.256V21.32
		c-3.918-0.372-7.959,0.061-11.486,1.397c-3.297,1.251-6.143,3.307-7.992,6.251v31.83c2.877-1.919,5.816-3.497,8.836-4.573
		C56.512,54.999,60.051,54.417,63.713,54.708z"/>
	<path class="st1" d="M19.824,58.3c-0.935,0.075-1.749-0.618-1.829-1.548c-0.011-0.101-0.011-0.195,0-0.291l0.155-27.599h-3.115
		v35.116c4.282-1.105,8.578-1.809,12.904-1.839c3.995-0.025,7.99,0.532,11.995,1.89c-2.487-2.016-5.261-3.498-8.221-4.463
		C27.985,58.351,23.955,57.95,19.824,58.3z"/>
	<path class="st1" d="M32.965,22.451c-3.673-1.407-7.799-1.724-11.397-1.211l-0.19,33.573c3.925-0.141,7.764,0.357,11.377,1.538
		c2.874,0.935,5.598,2.307,8.096,4.12V28.918C39.076,25.788,36.207,23.692,32.965,22.451z"/>
	<path class="st1" d="M67.106,56.612c0,0.936-0.76,1.693-1.693,1.693c-0.137,0-0.266-0.016-0.391-0.045
		c-3.709-0.583-7.303-0.1-10.811,1.151c-2.824,1.009-5.598,2.517-8.332,4.362c3.744-1.178,7.482-1.659,11.221-1.639
		c4.328,0.024,8.625,0.733,12.904,1.839V28.863h-2.898V56.612z"/>
</g>
</svg>
