<?xml version="1.0" encoding="utf-8"?>
<!-- Generator: Adobe Illustrator 16.0.3, SVG Export Plug-In . SVG Version: 6.00 Build 0)  -->
<!DOCTYPE svg PUBLIC "-//W3C//DTD SVG 1.1//EN" "http://www.w3.org/Graphics/SVG/1.1/DTD/svg11.dtd">
<svg version="1.1" id="Vrstva_1" xmlns="http://www.w3.org/2000/svg" xmlns:xlink="http://www.w3.org/1999/xlink" x="0px" y="0px"
	 width="85.04px" height="85.04px" viewBox="0 0 85.04 85.04" enable-background="new 0 0 85.04 85.04" xml:space="preserve">
<rect fill="#523795" width="85.04" height="85.038"/>
<g>
	<g>
		<path fill="#FFFFFF" d="M23.106,36.658c1.874,0,3.62-0.53,5.113-1.435c-0.063-0.565-0.103-1.138-0.103-1.72
			c0-4.032,1.594-7.691,4.173-10.406c-1.458-3.646-5.017-6.225-9.183-6.225c-5.464,0-9.894,4.429-9.894,9.894
			C13.212,32.229,17.643,36.658,23.106,36.658z"/>
		<path fill="#FFFFFF" d="M25.297,55.388c3.184-5.785,6.856-8.192,9.814-9.13c-2.657-1.701-4.749-4.212-5.928-7.181
			c-0.492-0.173-0.992-0.313-1.504-0.379l0.006-0.011c-4.744-0.815-8.966-0.037-9.335,0.036c-2.915,0.455-5.535,2.662-7.65,6.507
			c-1.066,1.937-2.946,6.778-2.956,8.827c-0.008,1.705,0.801,3.2,2.684,3.2H24.38C24.716,56.514,25.031,55.871,25.297,55.388z"/>
	</g>
	<g>
		<path fill="#FFFFFF" d="M58.387,33.503c0,0.676-0.044,1.343-0.131,1.996c1.384,0.738,2.964,1.159,4.645,1.159
			c5.465,0,9.893-4.429,9.893-9.895c0-5.463-4.428-9.893-9.893-9.893c-4.028,0-7.485,2.41-9.029,5.862
			C56.655,25.479,58.387,29.291,58.387,33.503z"/>
		<path fill="#FFFFFF" d="M75.305,45.228c-2.159-3.922-4.84-6.139-7.83-6.53l0.006-0.011c-4.744-0.815-8.966-0.037-9.336,0.036
			c-0.256,0.04-0.508,0.111-0.759,0.177c-1.167,3.045-3.283,5.623-5.995,7.357c2.993,0.95,6.646,3.373,9.815,9.131
			c0.267,0.482,0.581,1.126,0.915,1.868h13.455c1.711,0,2.814-1.302,2.766-3.2C78.293,52.159,76.372,47.166,75.305,45.228z"/>
	</g>
	<path fill="#FFFFFF" d="M30.826,33.503c0-6.863,5.564-12.425,12.426-12.425c6.863,0,12.426,5.563,12.426,12.425
		s-5.563,12.425-12.426,12.425C36.39,45.928,30.826,40.366,30.826,33.503z M58.833,56.694c-2.712-4.928-6.079-7.712-9.836-8.205
		l0.008-0.014c-5.959-1.023-11.26-0.046-11.724,0.047c-3.661,0.572-6.951,3.342-9.609,8.172c-1.337,2.433-3.699,8.514-3.712,11.087
		c-0.011,2.144,1.005,4.017,3.37,4.017h31.845c2.148,0,3.537-1.634,3.474-4.017C62.583,65.397,60.171,59.126,58.833,56.694z"/>
</g>
</svg>
