<svg xmlns="http://www.w3.org/2000/svg" version="1.1" xmlns:xlink="http://www.w3.org/1999/xlink" xmlns:svgjs="http://svgjs.com/svgjs" width="2000" height="600" preserveAspectRatio="none" viewBox="0 0 2000 600"><g mask="url(&quot;#SvgjsMask2528&quot;)" fill="none"><path d="M1363.49 557.9a5.6 5.6 0 1 0 4.97-10.03 5.6 5.6 0 1 0-4.97 10.03zM1370.59 543.57a5.6 5.6 0 1 0 4.97-10.04 5.6 5.6 0 1 0-4.97 10.04zM1377.69 529.23a5.6 5.6 0 1 0 4.97-10.04 5.6 5.6 0 1 0-4.97 10.04zM1384.79 514.89a5.6 5.6 0 1 0 4.97-10.03 5.6 5.6 0 1 0-4.97 10.03z" fill="rgba(81, 44, 160, 0.31)"></path><path d="M706.31 254.05a5.6 5.6 0 1 0-8.93 6.76 5.6 5.6 0 1 0 8.93-6.76zM693.56 263.71a5.6 5.6 0 1 0-8.93 6.76 5.6 5.6 0 1 0 8.93-6.76zM680.8 273.37a5.6 5.6 0 1 0-8.93 6.76 5.6 5.6 0 1 0 8.93-6.76zM668.04 283.02a5.6 5.6 0 1 0-8.93 6.76 5.6 5.6 0 1 0 8.93-6.76zM722.17 221.98a5.6 5.6 0 1 0-8.93 6.76 5.6 5.6 0 1 0 8.93-6.76zM709.41 231.64a5.6 5.6 0 1 0-8.93 6.76 5.6 5.6 0 1 0 8.93-6.76zM696.65 241.29a5.6 5.6 0 1 0-8.92 6.76 5.6 5.6 0 1 0 8.92-6.76zM683.9 250.95a5.6 5.6 0 1 0-8.93 6.76 5.6 5.6 0 1 0 8.93-6.76z" fill="rgba(81, 44, 160, 0.31)"></path><rect width="60" height="60" clip-path="url(&quot;#SvgjsClipPath2529&quot;)" x="1967.72" y="351.11" fill="url(#SvgjsPattern2530)" transform="rotate(166.24, 1997.72, 381.11)"></rect><circle r="50" cx="1731.72" cy="413.75" fill="rgba(81, 44, 160, 0.31)"></circle><rect width="168" height="168" clip-path="url(&quot;#SvgjsClipPath2531&quot;)" x="1543.47" y="373.98" fill="url(#SvgjsPattern2532)" transform="rotate(233.27, 1627.47, 457.98)"></rect><path d="M1976.6 32.74a5.6 5.6 0 1 0-11.2 0.03 5.6 5.6 0 1 0 11.2-0.03zM1960.6 32.79a5.6 5.6 0 1 0-11.2 0.04 5.6 5.6 0 1 0 11.2-0.04zM1944.6 32.85a5.6 5.6 0 1 0-11.2 0.04 5.6 5.6 0 1 0 11.2-0.04zM1928.6 32.9a5.6 5.6 0 1 0-11.2 0.04 5.6 5.6 0 1 0 11.2-0.04zM2008.55 16.62a5.6 5.6 0 1 0-11.2 0.04 5.6 5.6 0 1 0 11.2-0.04zM1992.55 16.68a5.6 5.6 0 1 0-11.2 0.04 5.6 5.6 0 1 0 11.2-0.04zM1976.55 16.74a5.6 5.6 0 1 0-11.2 0.03 5.6 5.6 0 1 0 11.2-0.03zM1960.55 16.79a5.6 5.6 0 1 0-11.2 0.04 5.6 5.6 0 1 0 11.2-0.04zM2040.49 0.51a5.6 5.6 0 1 0-11.2 0.04 5.6 5.6 0 1 0 11.2-0.04zM2024.49 0.57a5.6 5.6 0 1 0-11.2 0.04 5.6 5.6 0 1 0 11.2-0.04zM2008.49 0.62a5.6 5.6 0 1 0-11.2 0.04 5.6 5.6 0 1 0 11.2-0.04zM1992.49 0.68a5.6 5.6 0 1 0-11.2 0.04 5.6 5.6 0 1 0 11.2-0.04z" stroke="rgba(36, 46, 151, 0.39)" stroke-width="1.49" stroke-dasharray="3, 3"></path><rect width="131.2" height="131.2" clip-path="url(&quot;#SvgjsClipPath2533&quot;)" x="135.18" y="470.12" fill="url(#SvgjsPattern2534)" transform="rotate(130.21, 200.78, 535.72)"></rect><rect width="294.84" height="294.84" clip-path="url(&quot;#SvgjsClipPath2535&quot;)" x="685.6" y="401.33" fill="url(#SvgjsPattern2536)" transform="rotate(323.45, 833.02, 548.75)"></rect><rect width="357.2" height="357.2" clip-path="url(&quot;#SvgjsClipPath2537&quot;)" x="1270.36" y="62.28" fill="url(#SvgjsPattern2538)" transform="rotate(261.21, 1448.96, 240.88)"></rect><path d="M1220.33 378.03L1232.41 382.29 1230.91 395 1242.99 399.26 1241.49 411.98 1253.56 416.23 1252.06 428.95M1213.54 382.26L1225.62 386.52 1224.12 399.24 1236.2 403.49 1234.7 416.21 1246.77 420.47 1245.27 433.18" stroke="rgba(30, 7, 86, 0.53)" stroke-width="1" stroke-dasharray="3, 3"></path><rect width="228" height="228" clip-path="url(&quot;#SvgjsClipPath2539&quot;)" x="128.88" y="411.27" fill="url(#SvgjsPattern2540)" transform="rotate(236.08, 242.88, 525.27)"></rect><path d="M501.33 46.67a5.6 5.6 0 1 0-6.8 8.89 5.6 5.6 0 1 0 6.8-8.89zM491.61 59.38a5.6 5.6 0 1 0-6.8 8.89 5.6 5.6 0 1 0 6.8-8.89zM481.89 72.09a5.6 5.6 0 1 0-6.8 8.89 5.6 5.6 0 1 0 6.8-8.89zM472.17 84.79a5.6 5.6 0 1 0-6.8 8.9 5.6 5.6 0 1 0 6.8-8.9z" fill="rgba(36, 46, 151, 0.39)"></path><path d="M1918.25 365.67 L1890.8999999999999 289.75L1874.2138294529748 358.0711705470251z" fill="rgba(36, 46, 151, 0.39)"></path><circle r="51.30084918934996" cx="147.13" cy="391.07" fill="rgba(30, 7, 86, 0.53)"></circle><path d="M1173.98 43.62L1180.72 54.51 1171.58 63.48 1178.33 74.36 1169.19 83.33 1175.93 94.22 1166.79 103.19M1166.04 42.66L1172.78 53.55 1163.64 62.52 1170.38 73.41 1161.24 82.37 1167.99 93.26 1158.85 102.23" stroke="rgba(81, 44, 160, 0.31)" stroke-width="2.91" stroke-dasharray="4, 4"></path></g><defs><mask id="SvgjsMask2528"><rect width="2000" height="600" fill="#ffffff"></rect></mask><pattern x="0" y="0" width="60" height="6" patternUnits="userSpaceOnUse" id="SvgjsPattern2530"><rect width="60" height="3" x="0" y="0" fill="rgba(36, 46, 151, 0.39)"></rect><rect width="60" height="3" x="0" y="3" fill="rgba(0, 0, 0, 0)"></rect></pattern><clipPath id="SvgjsClipPath2529"><circle r="15" cx="1997.72" cy="381.11"></circle></clipPath><pattern x="0" y="0" width="6" height="6" patternUnits="userSpaceOnUse" id="SvgjsPattern2532"><path d="M0 6L3 0L6 6" stroke="rgba(81, 44, 160, 0.31)" fill="none"></path></pattern><clipPath id="SvgjsClipPath2531"><circle r="42" cx="1627.47" cy="457.98"></circle></clipPath><pattern x="0" y="0" width="131.2" height="13.12" patternUnits="userSpaceOnUse" id="SvgjsPattern2534"><rect width="131.2" height="6.56" x="0" y="0" fill="rgba(148, 18, 151, 0.2)"></rect><rect width="131.2" height="6.56" x="0" y="6.56" fill="rgba(0, 0, 0, 0)"></rect></pattern><clipPath id="SvgjsClipPath2533"><circle r="32.8" cx="200.78" cy="535.72"></circle></clipPath><pattern x="0" y="0" width="294.84" height="11.34" patternUnits="userSpaceOnUse" id="SvgjsPattern2536"><rect width="294.84" height="5.67" x="0" y="0" fill="rgba(81, 44, 160, 0.31)"></rect><rect width="294.84" height="5.67" x="0" y="5.67" fill="rgba(0, 0, 0, 0)"></rect></pattern><clipPath id="SvgjsClipPath2535"><circle r="73.71" cx="833.02" cy="548.75"></circle></clipPath><pattern x="0" y="0" width="9.4" height="9.4" patternUnits="userSpaceOnUse" id="SvgjsPattern2538"><path d="M4.7 1L4.7 8.4M1 4.7L8.4 4.7" stroke="rgba(36, 46, 151, 0.39)" fill="none" stroke-width="1.96"></path></pattern><clipPath id="SvgjsClipPath2537"><circle r="89.3" cx="1448.96" cy="240.88"></circle></clipPath><pattern x="0" y="0" width="228" height="6" patternUnits="userSpaceOnUse" id="SvgjsPattern2540"><rect width="228" height="3" x="0" y="0" fill="rgba(81, 44, 160, 0.31)"></rect><rect width="228" height="3" x="0" y="3" fill="rgba(0, 0, 0, 0)"></rect></pattern><clipPath id="SvgjsClipPath2539"><circle r="57" cx="242.88" cy="525.27"></circle></clipPath></defs></svg>