<svg id="visual" viewBox="0 0 900 600" width="900" height="600" xmlns="http://www.w3.org/2000/svg" xmlns:xlink="http://www.w3.org/1999/xlink" version="1.1"><rect x="0" y="0" width="900" height="600" fill="#FFFFFF"></rect><path d="M0 335L21.5 336.3C43 337.7 86 340.3 128.8 350.8C171.7 361.3 214.3 379.7 257.2 385C300 390.3 343 382.7 385.8 382.3C428.7 382 471.3 389 514.2 386.3C557 383.7 600 371.3 642.8 362C685.7 352.7 728.3 346.3 771.2 351.5C814 356.7 857 373.3 878.5 381.7L900 390L900 601L878.5 601C857 601 814 601 771.2 601C728.3 601 685.7 601 642.8 601C600 601 557 601 514.2 601C471.3 601 428.7 601 385.8 601C343 601 300 601 257.2 601C214.3 601 171.7 601 128.8 601C86 601 43 601 21.5 601L0 601Z" fill="#502ca0"></path><path d="M0 438L21.5 434.3C43 430.7 86 423.3 128.8 417C171.7 410.7 214.3 405.3 257.2 408.3C300 411.3 343 422.7 385.8 429.2C428.7 435.7 471.3 437.3 514.2 433.3C557 429.3 600 419.7 642.8 413.7C685.7 407.7 728.3 405.3 771.2 401.8C814 398.3 857 393.7 878.5 391.3L900 389L900 601L878.5 601C857 601 814 601 771.2 601C728.3 601 685.7 601 642.8 601C600 601 557 601 514.2 601C471.3 601 428.7 601 385.8 601C343 601 300 601 257.2 601C214.3 601 171.7 601 128.8 601C86 601 43 601 21.5 601L0 601Z" fill="#684aab"></path><path d="M0 455L21.5 462C43 469 86 483 128.8 486C171.7 489 214.3 481 257.2 476.3C300 471.7 343 470.3 385.8 472C428.7 473.7 471.3 478.3 514.2 481.3C557 484.3 600 485.7 642.8 485.5C685.7 485.3 728.3 483.7 771.2 481.8C814 480 857 478 878.5 477L900 476L900 601L878.5 601C857 601 814 601 771.2 601C728.3 601 685.7 601 642.8 601C600 601 557 601 514.2 601C471.3 601 428.7 601 385.8 601C343 601 300 601 257.2 601C214.3 601 171.7 601 128.8 601C86 601 43 601 21.5 601L0 601Z" fill="#7f66b5"></path><path d="M0 538L21.5 536.7C43 535.3 86 532.7 128.8 533.7C171.7 534.7 214.3 539.3 257.2 537C300 534.7 343 525.3 385.8 524.3C428.7 523.3 471.3 530.7 514.2 534.5C557 538.3 600 538.7 642.8 539C685.7 539.3 728.3 539.7 771.2 535.7C814 531.7 857 523.3 878.5 519.2L900 515L900 601L878.5 601C857 601 814 601 771.2 601C728.3 601 685.7 601 642.8 601C600 601 557 601 514.2 601C471.3 601 428.7 601 385.8 601C343 601 300 601 257.2 601C214.3 601 171.7 601 128.8 601C86 601 43 601 21.5 601L0 601Z" fill="#9683be"></path></svg>