<?xml version="1.0" encoding="utf-8"?>
<!-- Generator: Adobe Illustrator 16.0.3, SVG Export Plug-In . SVG Version: 6.00 Build 0)  -->
<!DOCTYPE svg PUBLIC "-//W3C//DTD SVG 1.1//EN" "http://www.w3.org/Graphics/SVG/1.1/DTD/svg11.dtd">
<svg version="1.1" xmlns="http://www.w3.org/2000/svg" xmlns:xlink="http://www.w3.org/1999/xlink" x="0px" y="0px" width="500px"
	 height="500px" viewBox="0 0 500 500" style="enable-background:new 0 0 500 500;" xml:space="preserve">
<style type="text/css">
<![CDATA[
	.st0{fill:#E0E0E0;}
	.st1{display:inline;fill:#EBEBEB;}
	.st2{fill:#EB996E;}
	.st3{fill:#EBEBEB;}
	.st4{fill:#512CA0;}
	.st5{fill:#263238;}
	.st6{fill:#F5F5F5;}
	.st7{fill:#FAFAFA;}
	.st8{opacity:0.1;}
	.st9{opacity:0.3;}
	.st10{opacity:0.4;}
	.st11{fill:#FFBE9D;}
	.st12{fill:#FFFFFF;}
	.st13{display:none;}
	.st14{fill:#455A64;}
]]>
</style>
<g id="Background_Complete">
	<g>
		<g>
			<g>
				<g>
					<g>
						<path class="st6" d="M278.438,462.058c-17.233-8.16-24.111-27.555-26.541-45.624c-0.405-3.016-1.27-6.121-0.289-8.994
							c0.982-2.872,4.007-5.233,6.905-4.424c2.404,0.671,3.813,3.098,5.422,5.029c2.14,2.57,5.008,4.512,8.17,5.527
							c2.077,0.668,4.542,0.875,6.251-0.484c2.346-1.864,2.046-5.49,1.522-8.47c-0.976-5.554-1.949-11.106-2.925-16.659
							c-0.523-2.979-1.047-6.023-0.599-9.011s2.054-5.964,4.756-7.239c2.704-1.274,6.489-0.232,7.582,2.586
							c0.455,1.173,0.421,2.476,0.713,3.699c0.293,1.225,1.102,2.497,2.336,2.643c1.249,0.148,2.3-0.898,3.043-1.923
							c2.569-3.532,4.002-7.765,5.302-11.953s2.526-8.459,4.765-12.217c2.237-3.757,5.661-7.014,9.892-7.979
							c4.231-0.964,9.228,0.902,11.017,4.913c1.794,4.022,0.063,8.703-2.031,12.559c-3.106,5.721-7.036,10.979-11.627,15.559
							c-0.827,0.826-1.725,1.72-1.896,2.886c-0.312,2.098,1.906,3.754,3.98,4.075c2.349,0.365,4.722-0.274,7.094-0.394
							c2.372-0.12,5.064,0.479,6.316,2.529c1.737,2.842-0.271,6.469-2.427,8.985c-4.314,5.041-9.49,9.322-15.23,12.6
							c-2.059,1.174-4.248,2.269-5.757,4.109c-1.509,1.842-2.123,4.702-0.698,6.622c1.425,1.923,4.282,2.131,6.509,1.315
							c2.226-0.814,4.071-2.411,6.122-3.607c3.837-2.24,9.178-2.854,12.403,0.245c2.119,2.036,2.819,5.253,2.416,8.177
							c-0.402,2.923-1.769,5.613-3.274,8.136c-5.266,8.819-12.626,16.447-21.577,21.353
							C297.131,461.533,288.472,463.916,278.438,462.058"/>
					</g>
				</g>
			</g>
		</g>
		<g>
			<g>
				<g>
					<g>
						<g>
							<path class="st0" d="M281.17,450.011c1.11-9.514,3.192-19.842,5.741-30.568c0.646-2.68,1.286-5.327,1.916-7.937
								c0.636-2.603,1.265-5.185,2.036-7.671c1.522-4.981,3.366-9.655,5.255-14.036c1.887-4.384,3.837-8.475,5.688-12.287
								c1.861-3.81,3.662-7.328,5.44-10.464c3.538-6.289,6.985-11.015,9.485-14.162c1.246-1.578,2.253-2.771,2.946-3.57
								c0.334-0.38,0.597-0.679,0.794-0.904c0.182-0.2,0.277-0.301,0.285-0.294c0.008,0.006-0.074,0.118-0.241,0.332
								c-0.188,0.233-0.437,0.544-0.752,0.939c-0.665,0.822-1.645,2.036-2.863,3.633c-2.442,3.185-5.828,7.929-9.313,14.224
								c-1.751,3.141-3.528,6.66-5.367,10.474c-1.833,3.818-3.765,7.91-5.635,12.288c-1.87,4.376-3.695,9.036-5.202,13.992
								c-0.764,2.475-1.386,5.034-2.021,7.644c-0.629,2.608-1.267,5.254-1.913,7.933c-2.546,10.719-4.638,21.018-5.773,30.5"/>
						</g>
					</g>
				</g>
			</g>
		</g>
		<g>
			<g>
				<g>
					<g>
						<g>
							<path class="st0" d="M291.017,403.788c-0.035,0.012-0.214-0.424-0.506-1.223c-0.297-0.798-0.687-1.966-1.147-3.416
								c-0.924-2.898-2.063-6.944-3.303-11.41c-1.24-4.469-2.435-8.486-3.399-11.362c-0.479-1.439-0.878-2.602-1.165-3.4
								c-0.281-0.801-0.421-1.252-0.386-1.267c0.036-0.015,0.243,0.408,0.587,1.187c0.349,0.776,0.806,1.921,1.333,3.349
								c1.065,2.853,2.324,6.87,3.564,11.343c1.212,4.409,2.308,8.399,3.146,11.447c0.387,1.375,0.714,2.533,0.977,3.463
								C290.945,403.316,291.054,403.775,291.017,403.788z"/>
						</g>
					</g>
				</g>
			</g>
		</g>
		<g>
			<g>
				<g>
					<g>
						<g>
							<path class="st0" d="M328.153,390.133c0.007,0.038-0.527,0.193-1.499,0.442c-0.969,0.254-2.373,0.613-4.094,1.114
								c-3.448,0.973-8.164,2.484-13.294,4.38c-5.129,1.904-9.696,3.825-12.96,5.311c-1.638,0.731-2.946,1.358-3.854,1.787
								c-0.906,0.432-1.415,0.654-1.435,0.62c-0.018-0.035,0.459-0.323,1.337-0.816c0.879-0.488,2.165-1.172,3.786-1.952
								c3.229-1.582,7.789-3.567,12.933-5.479c5.146-1.899,9.899-3.357,13.385-4.234c1.739-0.452,3.162-0.755,4.149-0.943
								C327.595,390.179,328.144,390.095,328.153,390.133z"/>
						</g>
					</g>
				</g>
			</g>
		</g>
		<g>
			<g>
				<g>
					<g>
						<g>
							<path class="st0" d="M281.522,449.226c-0.016,0.011-0.133-0.135-0.342-0.423c-0.24-0.346-0.534-0.767-0.891-1.276
								c-0.769-1.112-1.838-2.75-3.133-4.791c-2.594-4.08-5.998-9.828-9.67-16.223c-3.674-6.396-7.021-12.169-9.524-16.297
								c-1.224-2.006-2.231-3.655-2.98-4.882c-0.321-0.532-0.586-0.972-0.804-1.333c-0.178-0.308-0.265-0.474-0.249-0.486
								c0.017-0.01,0.134,0.136,0.343,0.425c0.241,0.345,0.534,0.766,0.891,1.275c0.768,1.111,1.838,2.749,3.133,4.79
								c2.594,4.08,5.998,9.829,9.671,16.226c3.673,6.395,7.019,12.166,9.523,16.296c1.225,2.004,2.231,3.654,2.98,4.88
								c0.321,0.533,0.586,0.974,0.804,1.334C281.453,449.048,281.539,449.215,281.522,449.226z"/>
						</g>
					</g>
				</g>
			</g>
		</g>
		<g>
			<g>
				<g>
					<g>
						<g>
							<path class="st0" d="M329.702,424.182c0.008,0.018-0.154,0.118-0.471,0.294c-0.376,0.201-0.837,0.447-1.396,0.747
								c-1.292,0.674-3.036,1.584-5.158,2.691c-4.354,2.273-10.333,5.482-16.934,9.037c-6.603,3.558-12.617,6.715-17.02,8.898
								c-2.201,1.093-3.991,1.959-5.24,2.532c-0.578,0.261-1.055,0.476-1.442,0.651c-0.332,0.144-0.512,0.21-0.52,0.192
								s0.155-0.118,0.471-0.295c0.375-0.2,0.836-0.446,1.396-0.745c1.292-0.675,3.035-1.584,5.156-2.691
								c4.354-2.273,10.334-5.483,16.937-9.039c6.602-3.557,12.614-6.713,17.017-8.897c2.201-1.093,3.991-1.959,5.241-2.532
								c0.578-0.261,1.054-0.477,1.442-0.651C329.514,424.231,329.693,424.165,329.702,424.182z"/>
						</g>
					</g>
				</g>
			</g>
		</g>
	</g>
	<g>
		<g>
			<g>
				<path class="st3" d="M153.397,247.411c0,0-11.882,1.651-5.211,27.673c6.671,26.023,12.329,39.436,12.329,39.436
					s0.896,5.895-3.855,5.712c-4.752-0.182-14.439-4.04-17.726,1.087c-3.408,5.318-0.429,11.725,7.024,18.432
					s23.241,21.999,24.664,23.388c1.396,1.362,2.456,4.25-0.801,4.645s-26.385-2.32-27.016,8.731s23.2,26.324,25.773,28.043
					c2.573,1.72,2.979,3.064,2.402,4.56s-8.265-0.15-14.875-0.652c-6.609-0.503-14.362,0.073-14.191,6.479
					c0.17,6.407,12.683,22.596,49.189,34.634l17.281,4.471l12.775-12.58c25.698-28.588,28.512-48.854,25.476-54.499
					c-3.036-5.644-10.05-2.291-15.536,1.43s-11.34,8.969-12.583,7.958c-1.244-1.011-1.56-2.38-0.182-5.15
					c1.378-2.771,14.47-27.866,8.43-37.144c-6.039-9.276-24.761,4.572-27.783,5.849c-3.022,1.275-3.538-1.757-3.003-3.633
					c0.544-1.911,6.646-23.028,9.781-32.552c3.134-9.523,2.536-16.563-3.063-19.484c-5.4-2.816-11.89,5.346-15.922,7.865
					c-4.033,2.519-6.185-3.041-6.185-3.041s-1.755-14.451-8.898-40.349c-7.143-25.897-18.532-21.257-18.532-21.257"/>
			</g>
		</g>
		<g>
			<g>
				<g>
					<path class="st0" d="M208.367,458.346c-5.171-19.04-13.792-53.035-21.347-82.183c-7.551-29.138-14.413-55.513-19.486-74.577
						c-2.542-9.513-4.602-17.219-6.032-22.571c-0.706-2.647-1.256-4.712-1.636-6.139c-0.177-0.687-0.314-1.218-0.412-1.6
						c-0.09-0.361-0.122-0.551-0.122-0.551s0.069,0.179,0.177,0.535c0.111,0.379,0.266,0.906,0.465,1.586
						c0.403,1.42,0.987,3.475,1.736,6.111c1.502,5.309,3.621,13.006,6.203,22.526c5.171,19.04,12.093,45.401,19.645,74.539
						c7.554,29.148,16.115,63.156,21.189,82.221"/>
				</g>
			</g>
		</g>
		<g>
			<g>
				<g>
					<path class="st0" d="M152.269,327.262c0.021-0.032,0.425,0.187,1.138,0.61c0.716,0.421,1.731,1.06,2.98,1.86
						c2.493,1.607,5.88,3.914,9.572,6.527c3.631,2.59,6.914,4.932,9.426,6.724c1.137,0.801,2.096,1.476,2.867,2.019
						c0.68,0.474,1.046,0.751,1.026,0.784c-0.021,0.032-0.426-0.184-1.143-0.603c-0.714-0.423-1.731-1.063-2.971-1.876
						c-2.478-1.632-5.834-3.982-9.524-6.596c-3.647-2.563-6.946-4.88-9.47-6.653c-1.142-0.795-2.105-1.466-2.879-2.005
						C152.613,327.575,152.249,327.294,152.269,327.262z"/>
				</g>
			</g>
		</g>
		<g>
			<g>
				<g>
					
						<ellipse transform="matrix(-0.5384 0.8427 -0.8427 -0.5384 570.9264 345.3355)" class="st0" cx="190.886" cy="329.027" rx="18.885" ry="0.277"/>
				</g>
			</g>
		</g>
		<g>
			<g>
				<g>
					<path class="st0" d="M190.297,390.217c-0.024-0.03,0.315-0.354,0.948-0.916c0.723-0.633,1.625-1.422,2.696-2.359
						c2.272-1.994,5.4-4.762,8.738-7.941c3.347-3.174,6.276-6.151,8.378-8.323c0.991-1.022,1.825-1.883,2.494-2.571
						c0.593-0.605,0.934-0.927,0.962-0.901c0.028,0.025-0.258,0.396-0.803,1.046s-1.348,1.574-2.368,2.694
						c-2.033,2.245-4.926,5.274-8.282,8.457c-3.348,3.189-6.525,5.919-8.866,7.84c-1.175,0.956-2.134,1.719-2.813,2.226
						C190.707,389.979,190.322,390.247,190.297,390.217z"/>
				</g>
			</g>
		</g>
		<g>
			<g>
				<g>
					<path class="st0" d="M161.046,379.891c0.012-0.037,0.434,0.067,1.185,0.286c0.861,0.267,1.917,0.594,3.165,0.979
						c2.664,0.85,6.332,2.059,10.372,3.428c4.042,1.368,7.69,2.637,10.322,3.581c1.224,0.452,2.262,0.834,3.107,1.146
						c0.729,0.283,1.127,0.456,1.115,0.492s-0.433-0.068-1.185-0.287c-0.86-0.267-1.917-0.594-3.164-0.979
						c-2.664-0.85-6.333-2.06-10.374-3.429c-4.041-1.368-7.688-2.637-10.32-3.581c-1.225-0.451-2.263-0.834-3.108-1.146
						C161.432,380.1,161.034,379.926,161.046,379.891z"/>
				</g>
			</g>
		</g>
		<g>
			<g>
				<g>
					<path class="st0" d="M164.426,420.936c0.012-0.036,0.55,0.102,1.512,0.383c1.058,0.322,2.422,0.739,4.06,1.239
						c3.42,1.069,8.134,2.583,13.329,4.287c5.197,1.705,9.891,3.278,13.28,4.442c1.616,0.568,2.961,1.04,4.005,1.407
						c0.942,0.344,1.457,0.551,1.445,0.587c-0.012,0.037-0.55-0.102-1.512-0.382c-1.058-0.323-2.422-0.739-4.06-1.239
						c-3.42-1.069-8.134-2.583-13.331-4.289c-5.195-1.704-9.889-3.276-13.278-4.441c-1.615-0.567-2.961-1.04-4.005-1.406
						C164.929,421.18,164.414,420.972,164.426,420.936z"/>
				</g>
			</g>
		</g>
		<g>
			<g>
				<g>
					<path class="st0" d="M201.239,432.734c-0.026-0.029,0.393-0.451,1.171-1.191c0.854-0.803,1.968-1.851,3.31-3.113
						c2.792-2.632,6.634-6.282,10.761-10.431c4.135-4.145,7.778-7.993,10.396-10.798c1.258-1.347,2.303-2.464,3.103-3.32
						c0.736-0.781,1.157-1.201,1.186-1.177c0.028,0.025-0.337,0.494-1.024,1.32c-0.687,0.825-1.699,2.005-2.975,3.44
						c-2.546,2.875-6.151,6.773-10.293,10.925c-4.133,4.156-8.025,7.768-10.888,10.328c-1.435,1.277-2.606,2.299-3.432,2.986
						C201.731,432.394,201.264,432.762,201.239,432.734z"/>
				</g>
			</g>
		</g>
	</g>
	<g>
		<path class="st6" d="M101.799,92.239l-9.759-3.045c0,0-2.556,8.194-11.118,5.685c-4.446-1.304-5.835-4.916-6.075-7.426
			c-0.278-2.915,0.966-5.75,3.161-7.688c2.507-2.212,6.908-3.562,13.123-0.351l6.865-22.004l-9.65-3.01l-4.021,12.889
			c0,0-14.625-0.724-19.278,14.191c-4.452,14.27,7.312,21.577,12.789,23.286C82.026,106.073,96.612,109.513,101.799,92.239z"/>
		
			<rect x="90.839" y="41.994" transform="matrix(-0.9546 -0.2978 0.2978 -0.9546 173.6489 120.0264)" class="st6" width="10.259" height="9.582"/>
	</g>
	<g>
		<path class="st3" d="M128.734,67.396l3.908-1.031c0,0-0.866-3.281,2.529-4.24c1.763-0.498,2.987,0.42,3.595,1.21
			c0.705,0.918,0.884,2.129,0.556,3.239c-0.375,1.268-1.565,2.645-4.321,2.875l2.324,8.812l3.864-1.019l-1.362-5.162
			c0,0,5.05-2.831,3.475-8.803c-1.507-5.715-6.982-5.69-9.176-5.112C132.449,58.608,126.841,60.521,128.734,67.396z"/>
		
			<rect x="138.209" y="79.499" transform="matrix(0.9669 -0.255 0.255 0.9669 -16.1183 38.4479)" class="st3" width="4.056" height="3.788"/>
	</g>
	<g>
		<path class="st3" d="M451.543,168.606l3.8,1.376c0,0,1.156-3.19,4.492-2.046c1.733,0.594,2.217,2.045,2.267,3.041
			c0.058,1.156-0.483,2.254-1.386,2.98c-1.029,0.829-2.791,1.283-5.188-0.096l-3.104,8.568l3.758,1.361l1.818-5.019
			c0,0,5.763,0.547,7.867-5.261c2.013-5.557-2.503-8.652-4.636-9.425C459.6,163.495,453.9,161.876,451.543,168.606z"/>
		
			<rect x="451.007" y="184.768" transform="matrix(0.9402 0.3406 -0.3406 0.9402 90.6555 -143.1326)" class="st3" width="4.056" height="3.789"/>
	</g>
	<g>
		<path class="st6" d="M48.255,212.129l8.042-3.098c0,0-2.602-6.752,4.369-9.577c3.621-1.467,6.43,0.192,7.902,1.726
			c1.71,1.78,2.373,4.305,1.937,6.734c-0.498,2.775-2.699,5.971-8.487,7.104l6.986,18.133l7.952-3.063l-4.092-10.622
			c0,0,10.042-7.18,5.308-19.471c-4.531-11.76-16.129-10.428-20.644-8.689C54.076,192.635,42.638,198,48.255,212.129z"/>
		
			<rect x="71.584" y="235.07" transform="matrix(0.9332 -0.3595 0.3595 0.9332 -80.8797 43.2704)" class="st6" width="8.648" height="8.078"/>
	</g>
	<g>
		<path class="st6" d="M454.669,242.639l-5.698,2.196c0,0,1.843,4.785-3.097,6.786c-2.565,1.04-4.557-0.136-5.6-1.223
			c-1.212-1.262-1.682-3.05-1.372-4.772c0.353-1.966,1.912-4.231,6.014-5.034l-4.95-12.85l-5.636,2.171l2.9,7.527
			c0,0-7.117,5.088-3.761,13.798c3.21,8.334,11.43,7.391,14.628,6.158C450.545,256.454,458.651,252.652,454.669,242.639z"/>
		
			<rect x="432.009" y="220.658" transform="matrix(-0.9331 0.3595 -0.3595 -0.9331 921.4164 275.6832)" class="st6" width="6.13" height="5.724"/>
	</g>
</g>
<g id="Background_Simple" class="st13">
	<path class="st1" d="M440.297,102.518c-23.614-35.231-63.693-60.282-106.101-60.93c-42.407-0.648-85.276,25.617-99.561,65.551
		c-6.962,19.466-7.186,40.619-11.275,60.884s-13.573,41.35-32.115,50.494c-25.112,12.383-54.894-1.764-82.861-0.428
		c-31.649,1.511-60.34,24.648-71.5,54.302c-11.16,29.654-5.737,64.254,11.247,91.002s44.581,45.854,74.688,55.728
		s101.067,15.613,132.47,11.386l0,0c14.795-0.643,29.484-2.994,43.68-7.214c43.181-12.835,78.326-34.393,107.546-64.706
		c34.839-36.142,56.559-84.466,61.421-134.43C472.044,181.944,463.912,137.748,440.297,102.518z"/>
</g>
<g id="Floor">
	<g>
		<path class="st5" d="M470.771,463.772c0,0.144-98.851,0.26-220.761,0.26c-121.952,0-220.782-0.116-220.782-0.26
			c0-0.145,98.83-0.261,220.782-0.261C371.92,463.511,470.771,463.627,470.771,463.772z"/>
	</g>
</g>
<g id="Plant">
	<g>
		<g>
			<g>
				<g>
					<path class="st4" d="M92.637,437.801c0.949-3.678-1.462-7.369-4.166-10.037c-2.703-2.669-5.935-5.059-7.341-8.587
						c-2.278-5.716,0.785-13.116-3.104-17.885c-2.287-2.806-6.388-3.744-8.418-6.741c-1.064-1.572-1.409-3.504-1.828-5.355
						c-2.134-9.446-6.862-18.293-13.529-25.316c-0.464,8.412,1.392,16.939,5.308,24.398c1.574,2.999,3.508,5.922,4.029,9.268
						c0.848,5.434-2.186,11.031-0.851,16.366c1.526,6.102,8.38,10.186,8.705,16.467c0.275,5.31-4.354,9.971-4.008,15.276
						c0.147,2.26,1.195,4.357,2.362,6.297c4.106,6.826,10.137,11.527,19.28,11.374l11.197,0.393L92.637,437.801z"/>
				</g>
			</g>
		</g>
		<g class="st9">
			<g>
				<g>
					<g>
						<path d="M92.637,437.801c0.949-3.678-1.462-7.369-4.166-10.037c-2.703-2.669-5.935-5.059-7.341-8.587
							c-2.278-5.716,0.785-13.116-3.104-17.885c-2.287-2.806-6.388-3.744-8.418-6.741c-1.064-1.572-1.409-3.504-1.828-5.355
							c-2.134-9.446-6.862-18.293-13.529-25.316c-0.464,8.412,1.392,16.939,5.308,24.398c1.574,2.999,3.508,5.922,4.029,9.268
							c0.848,5.434-2.186,11.031-0.851,16.366c1.526,6.102,8.38,10.186,8.705,16.467c0.275,5.31-4.354,9.971-4.008,15.276
							c0.147,2.26,1.195,4.357,2.362,6.297c4.106,6.826,10.137,11.527,19.28,11.374l11.197,0.393L92.637,437.801z"/>
					</g>
				</g>
			</g>
		</g>
		<g>
			<g>
				<g>
					<g>
						<g>
							<g>
								<path class="st5" d="M102.543,464.012c0,0,1.067,0.248,3.083-0.066c1.003-0.147,2.239-0.413,3.639-0.916
									c1.392-0.51,2.976-1.234,4.494-2.462c0.729-0.637,1.457-1.422,1.849-2.463c0.386-1.037,0.456-2.177,0.527-3.346
									c0.06-1.171,0.061-2.39,0.261-3.622c0.189-1.232,0.673-2.444,1.368-3.602c1.32-2.318,3.512-4.514,4.221-7.663
									c0.766-3.098,0.216-6.449-0.305-9.815c-0.52-3.358-1.023-7.021,0.262-10.52c1.201-3.502,3.657-6.663,4.884-10.611
									c1.223-3.987,0.653-8.275,0.911-12.506c0.119-2.124,0.529-4.249,1.459-6.217c0.906-1.982,2.163-3.852,3.144-5.938
									c1.987-4.218,2.338-8.999,2.882-13.685c0.265-2.36,0.533-4.746,0.803-7.154c0.267-2.421,0.481-4.832,1.244-7.161
									c0.69-2.347,1.689-4.617,2.678-6.931c0.484-1.163,0.997-2.327,1.3-3.619c0.219-1.319,0.282-2.555,0.361-3.851
									c0.125-2.567,0.02-5.17-0.298-7.751c-0.304-2.585-0.771-5.146-1.048-7.736c-0.018-0.152-0.035-0.306-0.05-0.446
									l-0.058-0.516l-0.458,0.229c-2.397,1.2-4.451,2.989-6.028,5.087c-1.604,2.084-2.771,4.435-3.704,6.825
									c-1.871,4.811-2.544,9.853-3.487,14.663c-0.92,4.812-2.134,9.544-4.601,13.543c-1.227,1.994-2.711,3.814-4.011,5.76
									c-1.296,1.932-2.436,4.054-2.778,6.382c-0.663,4.737,1.947,8.897,1.404,13.092c-0.193,2.084-1.023,4.032-2.043,5.812
									c-1.017,1.789-2.212,3.447-3.345,5.115c-1.133,1.668-2.212,3.358-3.006,5.166c-0.808,1.802-1.253,3.729-1.376,5.613
									c-0.273,3.776,0.263,7.358-0.013,10.74c-0.228,3.388-1.417,6.459-2.764,9.203c-1.354,2.755-2.861,5.246-4.123,7.662
									c-0.635,1.206-1.22,2.385-1.698,3.568c-0.505,1.181-0.753,2.39-0.983,3.539c-0.367,2.322-0.332,4.485-0.083,6.392
									c0.487,3.836,1.917,6.598,3.204,8.15c0.294,0.415,0.637,0.708,0.906,0.981c0.263,0.283,0.523,0.475,0.735,0.624
									C102.32,463.871,102.543,464.012,102.543,464.012c0.049-0.057-0.922-0.571-2.168-2.145c-1.233-1.561-2.601-4.303-3.04-8.096
									c-0.225-1.885-0.238-4.02,0.143-6.299c0.236-1.126,0.489-2.312,0.99-3.456c0.477-1.155,1.068-2.328,1.708-3.521
									c1.272-2.394,2.794-4.875,4.178-7.647c1.373-2.759,2.609-5.891,2.86-9.365c0.294-3.453-0.226-7.049,0.06-10.735
									c0.128-1.845,0.562-3.682,1.35-5.425c0.776-1.75,1.839-3.408,2.972-5.063c1.133-1.656,2.342-3.321,3.388-5.147
									c1.046-1.814,1.924-3.844,2.137-6.05c0.54-4.468-2.05-8.655-1.377-13.059c0.323-2.179,1.406-4.208,2.685-6.104
									c1.278-1.909,2.771-3.731,4.035-5.775c2.544-4.114,3.777-8.938,4.708-13.769c0.952-4.841,1.626-9.829,3.463-14.541
									c0.915-2.343,2.057-4.634,3.606-6.646c1.525-2.027,3.489-3.731,5.774-4.878l-0.516-0.285
									c0.016,0.142,0.034,0.296,0.051,0.451c0.281,2.62,0.749,5.188,1.05,7.741c0.315,2.553,0.419,5.104,0.297,7.633
									c-0.073,1.248-0.149,2.558-0.344,3.735c-0.273,1.178-0.776,2.34-1.256,3.491c-0.983,2.304-1.996,4.608-2.699,7.006
									c-0.778,2.386-1.001,4.889-1.261,7.28c-0.268,2.41-0.532,4.798-0.794,7.16c-0.535,4.705-0.886,9.409-2.8,13.481
									c-0.945,2.027-2.2,3.902-3.133,5.949c-0.962,2.042-1.389,4.287-1.5,6.447c-0.244,4.321,0.318,8.545-0.851,12.373
									c-1.161,3.81-3.604,6.988-4.837,10.602c-1.321,3.65-0.774,7.432-0.24,10.779c0.541,3.371,1.084,6.652,0.362,9.63
									c-0.647,3.008-2.776,5.184-4.124,7.568c-0.702,1.184-1.204,2.466-1.389,3.745c-0.196,1.274-0.186,2.504-0.235,3.665
									c-0.058,1.153-0.124,2.285-0.478,3.255c-0.352,0.967-1.037,1.731-1.737,2.356c-1.462,1.21-3.018,1.95-4.386,2.474
									c-1.377,0.519-2.596,0.806-3.587,0.974c-0.992,0.18-1.762,0.205-2.278,0.22
									C102.811,464.003,102.543,464.012,102.543,464.012z"/>
							</g>
						</g>
					</g>
				</g>
				<g>
					<g>
						<g>
							<g>
								<path class="st5" d="M137.923,332.097c-0.012-0.003-0.049,0.112-0.108,0.338c-0.066,0.269-0.147,0.6-0.247,1.009
									c-0.22,0.881-0.483,2.213-0.906,3.877c-0.439,1.658-1.456,3.535-2.324,5.848c-0.903,2.295-1.819,4.955-2.662,7.943
									c-0.854,2.985-1.611,6.302-2.402,9.854c-0.816,3.545-1.63,7.349-3.584,10.936c-0.917,1.818-1.951,3.659-2.771,5.674
									c-0.841,2.014-1.295,4.215-1.612,6.425c-0.538,4.436-1.352,8.939-2.414,13.547c-2.245,9.177-4.384,17.916-6.331,25.874
									c-1.995,7.931-3.792,15.078-5.307,21.103c-1.474,5.97-2.672,10.82-3.517,14.242c-0.389,1.642-0.697,2.938-0.92,3.881
									c-0.09,0.411-0.163,0.744-0.222,1.014c-0.046,0.229-0.063,0.349-0.051,0.352c0.012,0.003,0.053-0.11,0.123-0.333
									c0.078-0.266,0.173-0.593,0.292-0.997c0.255-0.935,0.606-2.22,1.052-3.847c0.898-3.408,2.171-8.239,3.738-14.186
									c1.558-6.014,3.405-13.147,5.456-21.064c1.966-7.96,4.125-16.702,6.391-25.881c1.063-4.602,1.885-9.188,2.41-13.603
									c0.311-2.194,0.744-4.316,1.552-6.27c0.791-1.963,1.809-3.795,2.727-5.633c1.97-3.654,2.791-7.573,3.575-11.104
									c0.767-3.562,1.492-6.868,2.31-9.848c0.807-2.982,1.684-5.638,2.547-7.935c0.824-2.306,1.807-4.205,2.219-5.919
									c0.388-1.704,0.601-3.022,0.777-3.921c0.072-0.414,0.13-0.751,0.177-1.022C137.923,332.219,137.935,332.099,137.923,332.097
									z"/>
							</g>
						</g>
					</g>
				</g>
			</g>
			<g>
				<g>
					<g>
						<g>
							<path class="st4" d="M104.519,464.046c7.314-4.348,9.413-17.543,6.362-25.485c-3.051-7.943-8.391-15.2-9.215-23.669
								c-0.633-6.51,1.499-13.19-0.017-19.553c-2.046-8.587-10.429-15.238-10.333-24.064c0.054-4.952,2.872-9.612,2.647-14.561
								c-0.275-6.068-4.933-10.883-7.818-16.229c-4.416-8.184-4.707-17.858-6.216-27.033c-1.51-9.175-5.007-19.001-13.138-23.511
								c-1.201,7.79-3.251,13.125-2.607,23.678c0.231,3.79,4.634,11.045,5.232,19.351c0.358,4.964,0.606,9.936,0.91,14.904
								c0.295,4.834,0.608,9.757,2.341,14.279c1.328,3.466,3.461,6.614,4.447,10.193c1.855,6.731-0.583,14.023,0.916,20.844
								c1.269,5.778,5.269,10.751,6.085,16.611c1.148,8.232-4.18,16.786-1.453,24.639c1.354,3.897,4.559,7.025,5.468,11.05
								c0.706,3.122-0.064,6.427,0.575,9.563c1.03,5.053,10.667,8.977,15.814,8.665"/>
						</g>
					</g>
				</g>
				<g>
					<g>
						<g>
							<g>
								<path class="st5" d="M68.807,297.675c-0.012,0.002-0.001,0.15,0.032,0.439c0.042,0.327,0.096,0.749,0.165,1.28
									c0.168,1.125,0.356,2.777,0.736,4.913c0.409,2.148,1.516,4.565,2.4,7.481c0.934,2.907,1.862,6.261,2.683,10.016
									c0.835,3.753,1.533,7.906,2.266,12.376c0.757,4.438,1.532,9.341,3.749,13.994c1.026,2.338,2.177,4.678,3.041,7.171
									c0.886,2.484,1.293,5.156,1.543,7.903c0.378,5.518,1.113,11.256,2.145,17.038c2.24,11.541,4.374,22.534,6.315,32.541
									c2.047,9.967,3.892,18.945,5.444,26.505c1.567,7.504,2.84,13.593,3.73,17.856c0.448,2.068,0.8,3.692,1.05,4.848
									c0.121,0.521,0.217,0.936,0.291,1.257c0.069,0.282,0.111,0.426,0.123,0.424c0.012-0.003-0.005-0.151-0.051-0.438
									c-0.057-0.324-0.13-0.744-0.221-1.271c-0.219-1.162-0.526-2.795-0.918-4.875c-0.837-4.274-2.033-10.379-3.507-17.901
									c-1.509-7.568-3.302-16.558-5.292-26.536c-1.924-10.003-4.037-20.993-6.256-32.531c-1.032-5.788-1.762-11.442-2.152-16.982
									c-0.255-2.763-0.68-5.516-1.595-8.062c-0.89-2.546-2.057-4.896-3.083-7.214c-2.205-4.585-2.979-9.374-3.768-13.826
									c-0.758-4.462-1.488-8.628-2.357-12.388c-0.856-3.763-1.823-7.123-2.796-10.029c-0.93-2.926-2.07-5.323-2.509-7.416
									c-0.417-2.098-0.654-3.766-0.867-4.876c-0.098-0.526-0.175-0.944-0.235-1.27C68.855,297.818,68.819,297.673,68.807,297.675z
									"/>
							</g>
						</g>
					</g>
				</g>
			</g>
		</g>
	</g>
</g>
<g id="Speech_Bubble">
	<g>
		<g>
			<path class="st4" d="M421.474,88.773h-3.981c0,0,0,3.342-3.473,3.402c-1.805,0.031-2.74-1.15-3.12-2.056
				c-0.441-1.051-0.308-2.249,0.284-3.224c0.675-1.113,2.154-2.125,4.837-1.653v-8.976h-3.936v5.258c0,0-5.521,1.427-5.521,7.511
				c0,5.821,5.22,7.173,7.454,7.173C415.728,96.209,421.549,95.796,421.474,88.773z"/>
			<rect x="412.038" y="70.688" class="st4" width="3.995" height="3.731"/>
		</g>
		<g>
			<g>
				<g>
					<g>
						<g>
							<g>
								<path class="st5" d="M443.276,83.447c0.011,0,0.014-0.17,0.008-0.504c-0.01-0.366-0.023-0.855-0.042-1.48
									c-0.015-0.325-0.015-0.691-0.048-1.091c-0.057-0.4-0.117-0.836-0.184-1.306c-0.068-0.474-0.141-0.982-0.219-1.524
									c-0.133-0.535-0.273-1.103-0.422-1.703c-0.615-2.392-1.667-5.29-3.599-8.252c-1.9-2.961-4.618-6.038-8.313-8.535
									c-3.698-2.451-8.351-4.341-13.577-4.842c-1.308-0.049-2.638-0.207-3.99-0.081c-0.675,0.047-1.36,0.033-2.041,0.132
									c-0.68,0.103-1.365,0.206-2.056,0.31c-2.726,0.557-5.52,1.369-8.12,2.773c-2.607,1.373-5.089,3.143-7.299,5.304
									c-2.164,2.204-4.042,4.777-5.489,7.642c-1.459,2.856-2.467,6.021-2.859,9.314c-0.161,0.816-0.161,1.651-0.211,2.484
									c-0.055,0.834-0.085,1.671-0.046,2.512c0.068,1.68,0.279,3.365,0.636,5.03c0.77,3.618,2.243,7.023,4.214,10.015l-0.03-0.304
									c-1.394,3.472-2.761,6.877-4.095,10.201l-0.242,0.604l0.627-0.172c3.743-1.029,7.384-2.03,10.905-2.999l-0.269-0.052
									c3.804,2.863,8.147,4.688,12.461,5.443c2.155,0.379,4.306,0.54,6.385,0.397c1.041-0.044,2.068-0.095,3.066-0.29
									c0.501-0.078,0.998-0.155,1.492-0.231c0.49-0.091,0.966-0.24,1.444-0.356c7.676-1.971,13.346-6.699,16.591-11.381
									c1.65-2.344,2.835-4.656,3.573-6.773c0.188-0.527,0.371-1.036,0.546-1.525c0.128-0.503,0.25-0.985,0.368-1.448
									c0.114-0.462,0.224-0.904,0.328-1.325c0.082-0.425,0.125-0.835,0.185-1.219c0.098-0.771,0.231-1.449,0.261-2.043
									c0.02-0.584,0.036-1.083,0.05-1.499c0.009-0.379,0.016-0.681,0.021-0.916C443.288,83.551,443.285,83.447,443.276,83.447
									c-0.01,0-0.023,0.104-0.043,0.309c-0.018,0.233-0.042,0.534-0.071,0.912c-0.028,0.413-0.062,0.909-0.101,1.489
									c-0.046,0.589-0.195,1.26-0.308,2.023c-0.551,3.002-1.748,7.503-5.109,12.101c-3.246,4.591-8.862,9.199-16.408,11.095
									c-0.471,0.111-0.938,0.257-1.42,0.343c-0.485,0.073-0.974,0.146-1.466,0.22c-0.98,0.188-1.988,0.231-3.011,0.27
									c-2.04,0.132-4.148-0.034-6.259-0.414c-4.225-0.756-8.472-2.556-12.19-5.369l-0.122-0.092l-0.147,0.04
									c-3.523,0.961-7.166,1.955-10.911,2.977l0.384,0.432c1.338-3.323,2.709-6.727,4.106-10.196l0.064-0.16l-0.096-0.145
									c-1.925-2.926-3.363-6.255-4.116-9.791c-0.348-1.627-0.555-3.274-0.622-4.917c-0.038-0.822-0.009-1.641,0.045-2.456
									c0.049-0.814,0.046-1.632,0.205-2.429c0.381-3.221,1.362-6.314,2.785-9.109c1.412-2.803,3.244-5.324,5.357-7.485
									c2.158-2.12,4.583-3.858,7.132-5.209c2.543-1.384,5.276-2.186,7.946-2.743c0.676-0.104,1.348-0.208,2.014-0.311
									c0.667-0.1,1.34-0.088,2.001-0.137c1.326-0.131,2.632,0.021,3.916,0.062c5.131,0.468,9.711,2.298,13.367,4.684
									c3.651,2.433,6.355,5.442,8.262,8.347c1.937,2.906,3.013,5.758,3.66,8.119c0.158,0.593,0.308,1.153,0.448,1.681
									c0.088,0.537,0.17,1.039,0.247,1.508c0.076,0.465,0.147,0.897,0.213,1.294c0.044,0.396,0.055,0.76,0.08,1.083
									c0.046,0.622,0.081,1.109,0.107,1.473C443.245,83.276,443.264,83.447,443.276,83.447z"/>
							</g>
						</g>
					</g>
				</g>
			</g>
		</g>
	</g>
</g>
<g id="Question_Mark">
	<g>
		<g>
			<g>
				<path class="st4" d="M145.067,201.385h57.753c0,0,0-48.491,50.393-49.359c26.171-0.451,39.741,16.692,45.254,29.826
					c6.402,15.251,4.465,32.633-4.113,46.775c-9.796,16.151-30.893,32.38-69.813,25.522l-0.369,128.668h57.106V306.54
					c0,0,80.092-20.704,80.092-108.969c0-84.451-68.292-102.694-104.995-103.867c-20.424-0.652-27.827-1.53-53.087,2.056
					C171.098,100.33,144.386,137.706,145.067,201.385z"/>
				<rect x="224.012" y="409.643" class="st4" width="57.956" height="54.129"/>
				<rect x="224.012" y="409.643" class="st8" width="57.956" height="54.129"/>
				<path class="st8" d="M145.067,201.385h57.753c0,0,0-48.491,50.393-49.359c26.171-0.451,39.741,16.692,45.254,29.826
					c6.402,15.251,4.465,32.633-4.113,46.775c-9.796,16.151-30.893,32.38-69.813,25.522l-0.369,128.668h57.106V306.54
					c0,0,80.092-20.704,80.092-108.969c0-84.451-68.292-102.694-104.995-103.867c-20.424-0.652-27.827-1.53-53.087,2.056
					C171.098,100.33,144.386,137.706,145.067,201.385z"/>
			</g>
			<g>
				<path class="st4" d="M121.145,201.385h57.753c0,0,0-48.491,50.393-49.359c26.171-0.451,39.741,16.692,45.254,29.826
					c6.402,15.251,4.465,32.633-4.113,46.775c-9.796,16.151-31.261,30.831-70.182,23.974v130.217h57.106V306.54
					c0,0,80.092-20.704,80.092-108.969c0-84.451-75.733-104.065-108.151-104.065C204.505,93.506,120.055,99.499,121.145,201.385z"/>
				<path class="st9" d="M121.145,201.385h57.753c0,0,0-48.491,50.393-49.359c26.171-0.451,39.741,16.692,45.254,29.826
					c6.402,15.251,4.465,32.633-4.113,46.775c-9.796,16.151-31.261,30.831-70.182,23.974v130.217h57.106V306.54
					c0,0,80.092-20.704,80.092-108.969c0-84.451-75.733-104.065-108.151-104.065C204.505,93.506,120.055,99.499,121.145,201.385z"/>
				<rect x="200.089" y="409.643" class="st4" width="57.956" height="54.129"/>
				<rect x="200.089" y="409.643" class="st9" width="57.956" height="54.129"/>
			</g>
		</g>
		<g>
			<path class="st5" d="M235.813,152.294c-0.003,0.018-0.301-0.001-0.864-0.053c-0.565-0.029-1.387-0.188-2.461-0.2
				c-2.139-0.142-5.253-0.087-9.056,0.375c-3.799,0.476-8.288,1.417-13.073,3.075c-2.379,0.858-4.854,1.843-7.285,3.133
				c-2.452,1.243-4.879,2.764-7.123,4.613c-2.257,1.83-4.166,3.966-5.83,6.16c-1.67,2.188-3.116,4.421-4.369,6.62
				c-2.456,4.428-4.134,8.7-5.172,12.386c-1.063,3.683-1.526,6.763-1.737,8.894c-0.123,1.066-0.155,1.898-0.185,2.463
				c-0.033,0.564-0.06,0.861-0.077,0.861c-0.018,0-0.027-0.297-0.028-0.864c-0.004-0.567-0.005-1.404,0.088-2.478
				c0.149-2.146,0.561-5.255,1.584-8.976c1-3.724,2.654-8.042,5.107-12.52c1.252-2.224,2.702-4.483,4.383-6.696
				c1.67-2.213,3.604-4.386,5.904-6.251c2.281-1.879,4.74-3.415,7.22-4.664c2.459-1.297,4.959-2.281,7.361-3.134
				c4.831-1.646,9.358-2.555,13.187-2.987c3.833-0.418,6.967-0.417,9.113-0.212c1.078,0.043,1.9,0.235,2.462,0.298
				C235.523,152.223,235.815,152.276,235.813,152.294z"/>
		</g>
		<g>
			<path class="st5" d="M322.829,141.983c-0.008,0.005-0.071-0.072-0.188-0.228c-0.131-0.18-0.298-0.409-0.506-0.695
				c-0.456-0.647-1.092-1.55-1.9-2.697c-0.417-0.582-0.852-1.25-1.376-1.944c-0.556-0.674-1.158-1.404-1.804-2.188
				c-0.646-0.787-1.336-1.626-2.067-2.516c-0.752-0.872-1.629-1.723-2.504-2.655c-0.896-0.913-1.787-1.917-2.802-2.875
				c-1.036-0.937-2.114-1.911-3.229-2.919c-0.563-0.498-1.113-1.031-1.712-1.525c-0.611-0.481-1.231-0.97-1.86-1.465
				c-1.27-0.978-2.53-2.044-3.905-3.028c-5.48-3.97-11.891-7.786-18.923-11.175c-1.779-0.805-3.537-1.6-5.27-2.384
				c-1.772-0.688-3.52-1.366-5.235-2.032c-1.703-0.706-3.443-1.208-5.125-1.763c-1.691-0.525-3.319-1.133-4.969-1.518
				c-1.637-0.43-3.232-0.849-4.783-1.256c-1.55-0.411-3.091-0.654-4.561-0.975c-1.479-0.276-2.89-0.644-4.277-0.817
				c-1.382-0.2-2.709-0.392-3.977-0.575c-2.526-0.433-4.846-0.519-6.87-0.723c-1.014-0.08-1.956-0.188-2.826-0.229
				c-0.868-0.023-1.663-0.045-2.383-0.064c-1.403-0.045-2.507-0.081-3.298-0.106c-0.353-0.017-0.636-0.03-0.858-0.041
				c-0.194-0.012-0.293-0.022-0.293-0.032c0-0.009,0.099-0.016,0.292-0.021c0.223-0.003,0.506-0.006,0.859-0.011
				c0.792,0.002,1.898,0.005,3.304,0.008c0.721,0.005,1.519,0.012,2.389,0.019c0.873,0.026,1.817,0.12,2.835,0.187
				c2.03,0.176,4.359,0.237,6.896,0.648c1.273,0.173,2.606,0.355,3.995,0.544c1.393,0.163,2.811,0.521,4.296,0.79
				c1.478,0.313,3.025,0.548,4.582,0.953c1.559,0.402,3.162,0.816,4.807,1.24c1.656,0.381,3.293,0.985,4.992,1.507
				c1.69,0.552,3.438,1.052,5.148,1.758c1.725,0.667,3.479,1.345,5.26,2.033c1.74,0.786,3.506,1.583,5.293,2.391
				c7.062,3.404,13.493,7.25,18.982,11.259c1.377,0.994,2.64,2.071,3.909,3.059c0.629,0.501,1.249,0.995,1.86,1.481
				c0.599,0.5,1.148,1.039,1.711,1.542c1.113,1.021,2.188,2.006,3.223,2.954c1.012,0.97,1.898,1.987,2.79,2.911
				c0.87,0.945,1.74,1.807,2.486,2.69c0.723,0.902,1.405,1.753,2.045,2.551c0.635,0.795,1.228,1.537,1.774,2.221
				c0.515,0.705,0.938,1.384,1.343,1.977c0.776,1.173,1.386,2.096,1.823,2.757c0.19,0.298,0.343,0.536,0.463,0.724
				C322.788,141.892,322.836,141.979,322.829,141.983z"/>
		</g>
		<g>
			<path class="st5" d="M316.812,265.978c0.014,0.011-0.137,0.218-0.437,0.6c-0.337,0.418-0.779,0.969-1.332,1.656
				c-0.577,0.722-1.298,1.592-2.181,2.563c-0.876,0.976-1.845,2.115-3.007,3.289c-1.138,1.197-2.393,2.5-3.809,3.831
				c-1.377,1.371-2.939,2.738-4.566,4.196c-3.308,2.853-7.076,5.84-11.22,8.717c-4.163,2.85-8.296,5.311-12.139,7.389
				c-1.941,1.002-3.775,1.977-5.547,2.775c-1.747,0.851-3.412,1.56-4.936,2.198c-1.51,0.668-2.92,1.168-4.143,1.64
				c-1.222,0.479-2.291,0.844-3.17,1.127c-0.839,0.272-1.511,0.49-2.021,0.655c-0.464,0.145-0.71,0.213-0.716,0.195
				c-0.006-0.017,0.229-0.118,0.683-0.294c0.502-0.189,1.162-0.438,1.987-0.748c0.867-0.312,1.924-0.702,3.132-1.207
				c1.211-0.497,2.607-1.019,4.104-1.707c1.511-0.658,3.161-1.385,4.895-2.249c1.757-0.813,3.577-1.799,5.505-2.809
				c3.816-2.093,7.925-4.556,12.071-7.396c4.126-2.864,7.888-5.828,11.201-8.649c1.629-1.443,3.196-2.793,4.582-4.146
				c1.424-1.313,2.689-2.597,3.842-3.774c1.176-1.154,2.16-2.273,3.055-3.228c0.901-0.95,1.644-1.799,2.243-2.499
				c0.583-0.661,1.05-1.19,1.405-1.592C316.62,266.151,316.798,265.966,316.812,265.978z"/>
		</g>
		<g>
			<path class="st5" d="M256.345,378.283c-0.145,0-0.261-16.063-0.261-35.872c0-19.817,0.116-35.876,0.261-35.876
				c0.144,0,0.26,16.059,0.26,35.876C256.605,362.22,256.489,378.283,256.345,378.283z"/>
		</g>
		<g>
			<path class="st5" d="M258.547,460.102c-0.144,0-0.26-11.272-0.26-25.174c0-13.907,0.116-25.177,0.26-25.177
				s0.261,11.27,0.261,25.177C258.808,448.83,258.691,460.102,258.547,460.102z"/>
		</g>
	</g>
</g>
<g id="Character">
	<g>
		<g>
			<path class="st4" d="M315.399,193.709c-1.009,2.013,2.729,3.637,4.884,4.289c2.156,0.652,4.456,0.584,6.705,0.462
				c2.98-0.161,6.068-0.439,8.66-1.919c2.303-1.315,4.02-3.49,5.22-5.854c1.199-2.365,1.928-4.936,2.649-7.488
				C343.517,183.198,319.891,184.745,315.399,193.709z"/>
			<g class="st10">
				<path d="M315.399,193.709c-1.009,2.013,2.729,3.637,4.884,4.289c2.156,0.652,4.456,0.584,6.705,0.462
					c2.98-0.161,6.068-0.439,8.66-1.919c2.303-1.315,4.02-3.49,5.22-5.854c1.199-2.365,1.928-4.936,2.649-7.488
					C343.517,183.198,319.891,184.745,315.399,193.709z"/>
			</g>
			<g>
				<path class="st4" d="M382.143,187.306c3.855,2.754,8.599,4.244,13.337,4.187c2.27-0.027,4.675-0.466,6.351-1.998
					c0.771-0.705,1.346-1.605,2.14-2.284c0.539-0.46,1.169-0.81,1.676-1.305s0.89-1.205,0.736-1.897
					c-0.156-0.708-0.75-1.85-1.381-2.208c-2.714-1.54-5.951-1.484-9.07-1.413c-3.119,0.071-6.192,0.798-9.149,1.794
					c-2.419,0.813-4.954,1.962-6.18,4.2"/>
				<g class="st10">
					<path d="M406.382,184.009c-0.156-0.708-1.143-1.651-1.773-2.01c-2.714-1.539-5.559-1.683-8.678-1.611
						c-3.119,0.071-6.192,0.798-9.149,1.793c-2.419,0.814-4.954,1.962-6.18,4.2l1.541,0.924c3.855,2.754,8.599,4.244,13.337,4.187
						c2.27-0.027,4.675-0.466,6.351-1.998c0.771-0.705,1.346-1.605,2.14-2.284c0.539-0.46,1.169-0.81,1.676-1.305
						S406.536,184.702,406.382,184.009z"/>
				</g>
			</g>
			<path class="st4" d="M336.02,223.203l49.851,0.653c0.438,0.005,0.752-0.419,0.618-0.836l-5.848-18.24
				c0,0,0.862-9.115,2.053-20.083c1.808-16.645,4.212-37.573,4.243-37.517c-3.404-9.555-23.523-11.185-23.523-11.185l-22.932,1.364
				l-0.807-1.346l-6.599,3.068c-1.44,0.669-2.82,1.451-4.14,2.335c-4.354,2.917-14.861,9.6-16.776,17.058
				c-4.427,17.242,3.072,36.493,3.072,36.493l4.813-3.763c1.258-0.955,2.453-1.776,3.82-2.553l9.661,25.885
				c0,0-2.012,1.224-2.096,3.323C331.347,219.958,332.471,222.485,336.02,223.203"/>
			<g class="st9">
				<path d="M357.389,192.681c1.582-8.498,0.746-17.236-0.095-25.839c-2.769,7.038-2.667,14.97-5.597,21.942
					c-0.315,0.751-0.669,1.502-0.78,2.31c-0.11,0.808,0.065,1.704,0.667,2.255c0.796,0.728,1.982,0.335,3.054,0.207
					C355.772,193.42,356.37,193.032,357.389,192.681"/>
			</g>
			<g class="st10">
				<path d="M339.028,212.355c4.025,1.395,8.258-1.194,12.492-1.653c2.798-0.303,5.599,0.338,8.377,0.789
					c5.613,0.912,11.351,1.052,17.001,0.417c0.862-0.097,1.746-0.22,2.501-0.646c0.756-0.426,1.363-1.617,1.308-2.482
					c-9.414-0.966-18.829-1.542-28.243-2.508c-2.36-0.242-4.796-0.478-7.062,0.225c-2.847,0.882-5.039,3.117-7.045,5.32"/>
			</g>
			<path class="st4" d="M404.944,180.715c-4.075-9.164-18.425-34.525-18.425-34.525l-11.114,13.934l2.594,27.351
				c0,0,5.868-6.551,22.277-6.681c3.824-0.03,6.106,3.216,6.106,3.216L404.944,180.715z"/>
			<g>
				
					<ellipse transform="matrix(0.2588 0.9659 -0.9659 0.2588 413.514 -199.2674)" class="st5" cx="336.606" cy="169.825" rx="6.263" ry="0.26"/>
			</g>
			<g>
				<path class="st5" d="M374.566,158.27c0.024-0.026,0.389,0.285,1.028,0.874c0.624,0.603,1.506,1.503,2.476,2.721
					c1.939,2.402,4.314,6.158,5.307,10.859c0.497,2.337,0.578,4.644,0.318,6.699c-0.258,2.046-0.649,3.845-0.9,5.369
					c-0.265,1.521-0.421,2.757-0.5,3.616c-0.078,0.858-0.099,1.337-0.14,1.337c-0.031,0-0.079-0.479-0.063-1.349
					c0.018-0.869,0.118-2.125,0.338-3.661c0.206-1.536,0.561-3.351,0.788-5.368c0.228-2.007,0.134-4.251-0.352-6.534
					c-0.967-4.59-3.243-8.309-5.088-10.741C375.93,159.626,374.489,158.345,374.566,158.27z"/>
			</g>
			<g>
				<path class="st5" d="M364.387,221.023c0.009,0.035-0.377,0.145-1.085,0.315c-0.353,0.091-0.788,0.187-1.301,0.252
					c-0.513,0.072-1.094,0.183-1.745,0.212c-1.299,0.125-2.858,0.122-4.579-0.025c-1.717-0.179-3.592-0.521-5.501-1.102
					c-1.902-0.603-3.643-1.383-5.159-2.208c-1.501-0.853-2.789-1.733-3.788-2.572c-0.521-0.393-0.937-0.814-1.318-1.164
					c-0.386-0.345-0.689-0.67-0.93-0.945c-0.486-0.542-0.741-0.851-0.715-0.875c0.074-0.072,1.148,1.128,3.19,2.694
					c1.015,0.79,2.303,1.624,3.79,2.44c1.504,0.787,3.216,1.54,5.084,2.132c1.874,0.569,3.712,0.919,5.396,1.122
					c1.688,0.17,3.221,0.212,4.505,0.135C362.801,221.303,364.367,220.922,364.387,221.023z"/>
			</g>
			<g>
				<path class="st5" d="M379.783,215.32c0.061-0.013,0.256,0.533,0.385,1.459c0.119,0.921,0.144,2.25-0.269,3.645
					c-0.396,1.402-1.23,2.501-1.959,3.097c-0.731,0.608-1.293,0.801-1.317,0.75c-0.044-0.074,0.441-0.379,1.066-1.019
					c0.624-0.632,1.339-1.666,1.711-2.977C380.157,217.634,379.586,215.332,379.783,215.32z"/>
			</g>
			<g>
				<path class="st5" d="M377.072,218.843c0.13-0.031,0.395,1.429-0.253,3.076c-0.633,1.654-1.813,2.554-1.888,2.443
					c-0.111-0.109,0.822-1.104,1.401-2.631C376.935,220.213,376.917,218.849,377.072,218.843z"/>
			</g>
			<g>
				<path class="st5" d="M368.146,185.938c0.105,0.107-0.818,1.152-1.778,2.56c-0.969,1.403-1.61,2.64-1.749,2.581
					c-0.128-0.05,0.317-1.422,1.319-2.875C366.933,186.746,368.054,185.837,368.146,185.938z"/>
			</g>
			<g>
				<path class="st5" d="M333.932,161.721c-0.055,0.065-0.846-0.574-2.211-1.465c-1.362-0.893-3.333-1.995-5.656-2.866
					c-2.328-0.865-4.539-1.324-6.153-1.542c-1.614-0.221-2.63-0.257-2.629-0.342c-0.002-0.059,1.02-0.154,2.67-0.023
					c1.646,0.127,3.919,0.538,6.294,1.42c2.371,0.889,4.357,2.068,5.685,3.051C333.262,160.936,333.972,161.677,333.932,161.721z"/>
			</g>
			<g>
				<path class="st5" d="M386.525,145.858c0.097,0.138-2.601,1.785-5.053,4.728c-2.482,2.919-3.645,5.857-3.797,5.785
					c-0.059-0.022,0.154-0.784,0.696-1.939c0.54-1.154,1.446-2.685,2.702-4.181c1.26-1.493,2.613-2.646,3.658-3.375
					C385.778,146.144,386.493,145.805,386.525,145.858z"/>
			</g>
			<g>
				<path class="st5" d="M365.938,137.618c0.017-0.007,0.094,0.151,0.225,0.462c0.148,0.306,0.301,0.779,0.467,1.402
					c0.315,1.241,0.486,3.152-0.02,5.416c-0.52,2.236-1.768,4.841-4.079,6.892c-2.292,2.064-5.666,3.289-9.2,3.277
					c-3.543-0.024-6.866-1.235-9.29-3.104c-2.454-1.846-4.077-4.153-5.112-6.196c-1.017-2.068-1.489-3.885-1.702-5.146
					c-0.103-0.633-0.165-1.125-0.18-1.463c-0.023-0.336-0.027-0.513-0.009-0.514c0.052-0.005,0.113,0.699,0.388,1.938
					c0.271,1.236,0.792,3.01,1.831,5.017c1.057,1.983,2.674,4.21,5.071,5.979c2.363,1.791,5.577,2.944,9.005,2.969
					c3.418,0.011,6.667-1.156,8.883-3.117c2.239-1.95,3.486-4.454,4.037-6.617c0.536-2.189,0.429-4.054,0.179-5.286
					C366.184,138.285,365.876,137.641,365.938,137.618z"/>
			</g>
			<g class="st9">
				<path d="M369.436,187.711c-0.016-0.5-0.08-1.088-0.514-1.338c-0.272-0.157-0.624-0.123-0.906,0.015
					c-0.283,0.138-0.511,0.366-0.724,0.597c-1.211,1.313-2.058,2.594-2.673,4.27l4.902-0.422
					C369.49,189.799,369.468,188.745,369.436,187.711z"/>
			</g>
			<g class="st9">
				<path d="M385.708,177.399c-0.376-2.804-1.808-5.37-3.554-7.596c2.111,6.921,1.404,10.825,0.217,15.564l0.257-0.663
					C383.99,181.936,386.083,180.203,385.708,177.399z"/>
			</g>
		</g>
		<g>
			<g>
				<polygon class="st11" points="375.917,409.86 372.926,454.713 353.425,454.484 350.354,407.852 				"/>
			</g>
			<g>
				<g>
					<g>
						<g>
							<path class="st4" d="M373.483,448.809l0.004,1.297c0,0,21.981,8.847,22.212,13.02l-43.659-0.256l0.679-14.525
								C359.192,451.389,365.984,451.767,373.483,448.809z"/>
						</g>
					</g>
					<g>
						<g>
							<g>
								<path class="st12" d="M357.112,453.015c-0.846,0.227-1.436,1.173-1.244,2.027c0.191,0.855,1.148,1.463,1.999,1.252
									c0.85-0.211,1.592-1.326,1.307-2.154c-0.286-0.828-1.449-1.479-2.224-1.071"/>
							</g>
						</g>
					</g>
					<g>
						<g>
							<path class="st5" d="M352.04,462.87l0.163-3.494l41.785,1.524c0,0,1.939,0.857,1.711,2.226L352.04,462.87z"/>
						</g>
					</g>
					<g>
						<g>
							<g>
								<path class="st5" d="M373.639,450.229c-0.008,0.214-1.075,0.304-2.128,0.983c-1.07,0.651-1.616,1.572-1.813,1.486
									c-0.196-0.043,0.129-1.315,1.419-2.115C372.399,449.772,373.687,450.034,373.639,450.229z"/>
							</g>
						</g>
					</g>
					<g>
						<g>
							<g>
								<path class="st5" d="M378.208,452.15c0.048,0.207-0.878,0.564-1.607,1.462c-0.756,0.876-0.944,1.85-1.156,1.839
									c-0.201,0.032-0.341-1.217,0.588-2.315C376.949,452.029,378.204,451.947,378.208,452.15z"/>
							</g>
						</g>
					</g>
					<g>
						<g>
							<g>
								<path class="st5" d="M380.776,457.646c-0.194,0.044-0.484-1.022,0.07-2.187c0.546-1.169,1.554-1.623,1.643-1.445
									c0.12,0.176-0.531,0.799-0.972,1.762C381.054,456.727,380.988,457.626,380.776,457.646z"/>
							</g>
						</g>
					</g>
				</g>
			</g>
		</g>
		<g>
			<path class="st5" d="M372.361,81.854c1.125-2.805-0.238-6.196-2.673-7.986c-2.435-1.79-5.679-2.175-8.663-1.703
				c-2.984,0.472-5.783,1.718-8.542,2.951c-2.502-2.515-6.457-3.466-9.829-2.365c-3.371,1.101-6.003,4.204-6.538,7.71
				c-2.149-0.545-4.573,0.189-6.058,1.835c-1.485,1.646-1.967,4.132-1.204,6.214l13.517,4.748l14.763,25.967
				c4.315,3.683,11.374,3.584,15.584-0.22c4.21-3.804,5.023-10.816,1.795-15.482c0.834-0.729,1.519-1.609,2.073-2.565
				c2.341-1.446,4.172-3.703,4.777-6.398C382.648,88.851,378.172,82.535,372.361,81.854z"/>
			<g>
				<g>
					<g>
						<g>
							<g>
								<g>
									<g>
										<g>
											<g>
												<g>
													<g>
														<g>
															<g>
																<g>
																	<g>
																		<g>
																			<g>
																				<path class="st11" d="M363.414,135.996c-0.84-4.227-1.425-7.122-1.416-7.092c0,0,7.97-3.104,7.42-14.236
																					c-0.272-5.537-2.385-14.265-4.344-21.351c-1.764-6.378-7.709-13.41-14.007-11.377l-19.043,9.301
																					c-1.913,0.617-2.248,2.414-1.797,4.373l0.031,0.955l7.409,30.658l3.131,13.702
																					c1.385,5.83,6.99,9.639,12.921,8.78l0,0C360.282,148.759,364.705,142.5,363.414,135.996z"/>
																			</g>
																		</g>
																	</g>
																</g>
															</g>
														</g>
													</g>
													<g>
														<g>
															<g>
																<g>
																	<g>
																		<g>
																			<g>
																				<g>
																					<path class="st5" d="M364.948,100.723c0.179,0.724-0.287,1.473-1.04,1.673c-0.751,0.2-1.507-0.222-1.686-0.947
																						c-0.179-0.724,0.287-1.474,1.038-1.674C364.013,99.575,364.769,99.999,364.948,100.723z"/>
																				</g>
																			</g>
																		</g>
																	</g>
																</g>
															</g>
														</g>
														<g>
															<g>
																<g>
																	<g>
																		<g>
																			<g>
																				<g>
																					<g>
																						<path class="st5" d="M364.126,98.594c-0.133,0.216-1.343-0.339-2.828-0.023
																							c-1.489,0.294-2.42,1.288-2.619,1.14c-0.097-0.064,0.01-0.426,0.412-0.872
																							c0.396-0.442,1.123-0.945,2.05-1.135c0.928-0.189,1.778-0.012,2.299,0.243
																							C363.971,98.202,364.194,98.496,364.126,98.594z"/>
																					</g>
																				</g>
																			</g>
																		</g>
																	</g>
																</g>
															</g>
														</g>
													</g>
													<g>
														<g>
															<g>
																<g>
																	<g>
																		<g>
																			<g>
																				<g>
																					<path class="st5" d="M350.478,104.041c0.179,0.724-0.287,1.473-1.04,1.673c-0.751,0.2-1.507-0.223-1.686-0.947
																						s0.287-1.474,1.038-1.674C349.543,102.892,350.299,103.316,350.478,104.041z"/>
																				</g>
																			</g>
																		</g>
																	</g>
																</g>
															</g>
														</g>
														<g>
															<g>
																<g>
																	<g>
																		<g>
																			<g>
																				<g>
																					<g>
																						<path class="st5" d="M349.75,102.119c-0.135,0.216-1.345-0.338-2.83-0.023
																							c-1.488,0.294-2.419,1.288-2.619,1.14c-0.096-0.064,0.009-0.425,0.413-0.871
																							c0.396-0.443,1.123-0.945,2.05-1.136c0.928-0.189,1.777-0.011,2.299,0.244
																							C349.591,101.728,349.816,102.021,349.75,102.119z"/>
																					</g>
																				</g>
																			</g>
																		</g>
																	</g>
																</g>
															</g>
														</g>
													</g>
													<g>
														<g>
															<g>
																<g>
																	<g>
																		<g>
																			<g>
																				<g>
																					<path class="st5" d="M357.279,111.525c-0.024-0.083,0.866-0.437,2.324-0.942
																						c0.371-0.119,0.715-0.27,0.725-0.542c0.031-0.293-0.213-0.669-0.489-1.072
																						c-0.551-0.844-1.126-1.729-1.729-2.655c-2.423-3.789-4.262-6.937-4.108-7.033s2.242,2.896,4.664,6.686
																						c0.588,0.937,1.15,1.829,1.686,2.683c0.234,0.401,0.584,0.839,0.51,1.449
																						c-0.043,0.305-0.278,0.569-0.508,0.686c-0.228,0.125-0.44,0.174-0.626,0.225
																						C358.236,111.405,357.302,111.608,357.279,111.525z"/>
																				</g>
																			</g>
																		</g>
																	</g>
																</g>
															</g>
														</g>
													</g>
													<g>
														<g>
															<g>
																<g>
																	<g>
																		<g>
																			<g>
																				<path class="st2" d="M361.998,128.904c0,0-7.15,1.988-15.236-0.822c0,0,5.235,6.84,15.807,3.57L361.998,128.904
																					z"/>
																			</g>
																		</g>
																	</g>
																</g>
															</g>
														</g>
													</g>
												</g>
											</g>
										</g>
										<g>
											<g>
												<g>
													<g>
														<g>
															<g>
																<g>
																	<path class="st5" d="M350.03,100c-0.099,0.428-1.628,0.417-3.371,0.846c-1.752,0.394-3.115,1.085-3.395,0.747
																		c-0.127-0.164,0.075-0.579,0.604-1.047c0.523-0.466,1.39-0.954,2.438-1.202c1.048-0.246,2.041-0.195,2.718-0.012
																		C349.705,99.515,350.071,99.797,350.03,100z"/>
																</g>
															</g>
														</g>
													</g>
												</g>
											</g>
										</g>
										<g>
											<g>
												<g>
													<g>
														<g>
															<g>
																<g>
																	<path class="st5" d="M363.562,93.865c-0.238,0.402-1.523,0.306-2.984,0.596c-1.469,0.246-2.644,0.792-3.001,0.498
																		c-0.161-0.146-0.037-0.524,0.435-0.957c0.465-0.43,1.299-0.877,2.306-1.062c1.006-0.183,1.938-0.059,2.518,0.181
																		C363.422,93.36,363.665,93.672,363.562,93.865z"/>
																</g>
															</g>
														</g>
													</g>
												</g>
											</g>
										</g>
									</g>
								</g>
							</g>
						</g>
						<g>
							<path class="st5" d="M336.708,84.078c0.439,2.159,1.878,4.093,3.82,5.135c1.941,1.042,4.349,1.17,6.391,0.342
								c1.584-0.643,3.217-1.849,4.824-1.268c1.69,0.612,2.222,2.859,3.79,3.737c2.242,1.255,4.943-0.919,7.504-0.705
								c1.978,0.166,3.511,1.705,5.059,2.946c1.549,1.241,3.697,2.281,5.445,1.341c-0.466-1.65-0.938-3.317-1.77-4.817
								c-0.831-1.5-2.066-2.839-3.663-3.464c-0.875-0.342-1.834-0.462-2.67-0.892c-1.806-0.928-2.614-3.026-3.931-4.571
								c-1.697-1.991-4.402-3.075-7.004-2.807c-2.166,0.223-4.219,1.313-6.394,1.22c-1.607-0.068-3.147-0.783-4.757-0.756
								c-3.134,0.053-5.486,2.797-7.226,5.404"/>
						</g>
					</g>
				</g>
				<path class="st5" d="M347.246,86.367c-1.432-0.106-4.378-0.408-5.346-1.429c-2.103-2.219-5.238-3.382-8.042-2.638
					c-2.803,0.743-5.061,3.547-5.02,6.662c-3.426,0.738-6.326,3.587-7.3,7.171c-0.974,3.584,0.019,7.759,2.498,10.505
					c0.649,0.719,1.642,2.376,1.642,2.376s-1.286,1.605-1.779,2.698c-2.285,5.059,3.918,6.997,3.918,6.997
					c0.017,3.401,3.15,3.385,5.162,3.375c1.935-0.01,3.124,5.352,4.688,5.144l-1.589-16.562c0.192,0.077,0.43,0.127,0.732,0.133
					c3.791,0.068,2.802-7.104,1.574-8.959c1.068-1.435,2.148-2.889,2.842-4.575c0.692-1.685,0.736-5.897,0.147-7.667
					C342.695,89.403,347.875,86.414,347.246,86.367z"/>
				<g>
					<g>
						<g>
							<g>
								<g>
									<g>
										<g>
											<g>
												<g>
													<g>
														<g>
															<path class="st11" d="M336.644,111.542c-0.59-2.27-3.405-3.282-5.155-1.72c-0.96,0.857-1.532,2.299-0.927,4.712
																c1.615,6.438,7.744,3.489,7.71,3.301C338.25,117.72,337.335,114.2,336.644,111.542z"/>
														</g>
													</g>
												</g>
											</g>
										</g>
									</g>
								</g>
							</g>
						</g>
					</g>
					<g>
						<g>
							<g>
								<g>
									<g>
										<g>
											<g>
												<g>
													<g>
														<g>
															<g>
																<path class="st2" d="M335.694,115.89c-0.034-0.013-0.093,0.107-0.261,0.241c-0.163,0.131-0.467,0.269-0.834,0.228
																	c-0.742-0.079-1.586-1.015-1.908-2.167c-0.163-0.582-0.181-1.17-0.089-1.684c0.078-0.521,0.301-0.926,0.628-1.073
																	c0.32-0.164,0.614-0.02,0.738,0.142c0.132,0.158,0.123,0.297,0.16,0.3c0.022,0.011,0.111-0.143-0.008-0.396
																	c-0.059-0.121-0.172-0.254-0.354-0.34c-0.186-0.087-0.429-0.094-0.661-0.008c-0.487,0.159-0.819,0.728-0.921,1.292
																	c-0.128,0.574-0.122,1.239,0.062,1.892c0.366,1.287,1.335,2.334,2.333,2.37c0.482,0.004,0.826-0.227,0.982-0.428
																	C335.721,116.049,335.718,115.896,335.694,115.89z"/>
															</g>
														</g>
													</g>
												</g>
											</g>
										</g>
									</g>
								</g>
							</g>
						</g>
					</g>
				</g>
			</g>
			<g>
				<path class="st14" d="M371.174,102.55c-0.04-0.049,0.582-0.449,1.403-1.454c0.805-0.996,1.783-2.692,2.011-5.001
					c0.109-1.141,0.054-2.426-0.359-3.708c-0.412-1.274-1.149-2.557-2.286-3.552c-2.219-2.018-5.895-2.952-9.191-1.79
					c-0.302,0.097-0.58,0.248-0.865,0.365c-0.273,0.143-0.531,0.304-0.786,0.447l-0.396,0.223l-0.006-0.441
					c-0.01-0.775-0.301-1.526-0.809-2.102c-0.504-0.579-1.154-1.019-1.847-1.32c-1.405-0.618-2.914-0.628-4.293-0.314
					c-2.761,0.626-5.102,1.889-7.313,2.143c-2.19,0.28-4.009-0.264-4.988-1.002c-0.506-0.353-0.79-0.747-0.979-1
					c-0.161-0.277-0.236-0.424-0.222-0.432c0.052-0.043,0.322,0.614,1.311,1.272c0.969,0.657,2.722,1.125,4.83,0.81
					c1.048-0.155,2.166-0.529,3.357-0.969c1.193-0.436,2.47-0.959,3.904-1.279c0.717-0.153,1.47-0.266,2.26-0.226
					c0.784,0.041,1.575,0.219,2.33,0.536c0.751,0.322,1.468,0.796,2.038,1.448c0.575,0.645,0.931,1.531,0.938,2.437l-0.402-0.218
					c0.271-0.155,0.547-0.326,0.839-0.479c0.303-0.126,0.601-0.286,0.921-0.389c3.508-1.231,7.354-0.229,9.689,1.923
					c1.194,1.064,1.966,2.438,2.378,3.782c0.415,1.354,0.45,2.695,0.312,3.876c-0.284,2.39-1.349,4.111-2.221,5.091
					c-0.441,0.494-0.828,0.839-1.115,1.035C371.336,102.465,371.184,102.565,371.174,102.55z"/>
			</g>
			<g>
				<path class="st14" d="M369.866,79.944c-0.037,0.073-0.685-0.506-2.072-0.711c-0.684-0.089-1.549-0.085-2.461,0.223
					c-0.911,0.283-1.872,0.886-2.534,1.842l-0.245,0.354l-0.15-0.4c-0.81-2.157-3.172-4.208-6.1-4.529
					c-2.2-0.252-4.2,0.738-5.864,1.695c-1.676,0.981-3.206,1.94-4.647,2.405c-1.426,0.501-2.688,0.556-3.519,0.414
					c-0.417-0.073-0.73-0.171-0.934-0.257c-0.203-0.088-0.305-0.142-0.299-0.158c0.017-0.047,0.446,0.133,1.258,0.214
					c0.809,0.076,2.004-0.031,3.368-0.559c1.381-0.492,2.844-1.454,4.531-2.473c0.85-0.497,1.767-1.007,2.802-1.368
					c1.026-0.37,2.189-0.554,3.358-0.43c3.144,0.347,5.636,2.557,6.465,4.887l-0.396-0.046c0.755-1.047,1.816-1.668,2.797-1.94
					c0.984-0.297,1.9-0.262,2.612-0.13c0.718,0.14,1.239,0.396,1.568,0.599C369.727,79.788,369.877,79.929,369.866,79.944z"/>
			</g>
			<path class="st4" d="M356.703,114.481c-0.453-0.438-1.131-0.581-1.757-0.51c-0.588,0.067-1.312,0.592-1.685,1.23
				c-0.01,0.012-0.018,0.025-0.026,0.038c-0.016,0.028-0.041,0.053-0.055,0.082l0.024-0.017c-0.137,0.227-0.217,0.493-0.188,0.755
				c0.063,0.591,0.513,1.087,1.045,1.353c0.844,0.422,1.964,0.3,2.619-0.38C357.336,116.352,357.382,115.137,356.703,114.481z"/>
			<g>
				<path class="st5" d="M357.202,117.591c-0.077,0.015-0.175-0.297-0.441-0.715c-0.26-0.417-0.726-0.94-1.392-1.245
					c-0.668-0.302-1.369-0.31-1.854-0.231c-0.49,0.075-0.789,0.206-0.829,0.137c-0.035-0.052,0.209-0.311,0.741-0.495
					c0.52-0.185,1.352-0.25,2.157,0.115c0.805,0.368,1.303,1.038,1.505,1.551C357.298,117.229,357.265,117.584,357.202,117.591z"/>
			</g>
			<g>
				<path class="st4" d="M336.792,118.828c0.049-0.031,0.286,0.5-0.089,1.258c-0.188,0.36-0.531,0.758-1.066,0.964
					c-0.534,0.214-1.218,0.134-1.763-0.21c-0.546-0.343-0.914-0.925-0.951-1.5c-0.046-0.571,0.164-1.054,0.408-1.378
					c0.521-0.666,1.104-0.681,1.096-0.624c0.034,0.079-0.438,0.227-0.79,0.829c-0.168,0.293-0.296,0.697-0.237,1.121
					c0.05,0.42,0.329,0.842,0.752,1.111c0.425,0.265,0.927,0.335,1.326,0.198c0.407-0.13,0.716-0.42,0.908-0.698
					C336.776,119.322,336.706,118.832,336.792,118.828z"/>
			</g>
			<g>
				<path class="st4" d="M333.416,118.443c0.056,0.026-0.03,0.341-0.466,0.554c-0.212,0.098-0.506,0.16-0.83,0.082
					c-0.327-0.076-0.64-0.319-0.818-0.65c-0.18-0.331-0.213-0.726-0.097-1.041c0.11-0.315,0.324-0.528,0.522-0.651
					c0.416-0.248,0.727-0.147,0.718-0.086c0.006,0.078-0.245,0.129-0.494,0.379c-0.255,0.241-0.442,0.707-0.191,1.151
					c0.235,0.454,0.728,0.551,1.068,0.47C333.172,118.578,333.353,118.396,333.416,118.443z"/>
			</g>
		</g>
		<g>
			<path class="st11" d="M344.413,207.254c0,0,24.759,1.436,39.394,1.57c11.337,0.104,16.389-2.907,18.655-10.19
				c1.903-6.115-2.186-17.841-2.186-17.841c-7.665,0.039-12.396,1.095-17.329,3.407l1.314,5.362l-39.92,3.442L344.413,207.254z"/>
			<g>
				<path class="st2" d="M392.583,195.283c-0.137,0.093-1.301-2.076-3.737-3.709c-2.411-1.672-4.855-1.962-4.818-2.124
					c0.006-0.061,0.621-0.076,1.588,0.139c0.964,0.211,2.268,0.701,3.524,1.555c1.253,0.857,2.186,1.892,2.734,2.711
					C392.428,194.677,392.638,195.255,392.583,195.283z"/>
			</g>
			<g>
				<path class="st11" d="M335.346,184.165L335.346,184.165c0,0-7.659,1.836-13.281,5.597l5.98,16.263
					c1.997,5.337,8.117,7.96,12.965,5.191c7.53-4.302,10.186-16.864,10.186-16.864l8.275-35.878l-13.709-8.59L335.346,184.165"/>
				<g>
					<path class="st11" d="M345.762,149.884l0.554-11.8l-3.062-11.951c-0.17-0.662-0.254-1.488,0.282-1.891
						c0.561-0.421,1.399-0.4,1.849,0.059c0.838,0.857,4.836,11.354,4.836,11.354s6.066-3.646,7.149-3.824
						c1.083-0.178,2.433,3.087,2.518,3.345s0.011,2.193,0.011,2.193s3.752,0.112,4.088,0.627c0.336,0.515,0.433,3.183,0.433,3.183
						s1.587,0.508,1.843,1.712s0.767,3.182,0.019,3.616s-2.328,1.303-2.328,1.303s-0.636,6.123-0.8,6.679
						c-0.164,0.557-3.682,3.986-3.682,3.986L345.762,149.884z"/>
					<g>
						<path class="st2" d="M333.01,211.462c0.017-0.033,0.374,0.213,1.15,0.465c0.767,0.258,1.981,0.491,3.534,0.28
							c1.535-0.208,3.427-0.881,5.118-2.36c1.668-1.509,3.355-3.509,4.758-6.024c0.698-1.257,1.326-2.639,1.853-4.131
							c0.54-1.49,0.892-3.106,1.283-4.794c0.785-3.37,1.631-6.998,2.529-10.853c1.805-7.714,3.822-16.338,5.996-25.627l0.016-0.069
							l0.052-0.051c0.688-0.675,1.381-1.371,2.065-2.084c0.342-0.358,0.683-0.721,1.009-1.094c0.159-0.186,0.327-0.378,0.454-0.564
							c0.117-0.121,0.121-0.362,0.168-0.618c0.271-2.002,0.481-4.07,0.703-6.154l0.015-0.132l0.116-0.065
							c0.626-0.351,1.262-0.707,1.906-1.068c0.146-0.086,0.359-0.19,0.449-0.263c0.079-0.063,0.15-0.177,0.18-0.335
							c0.074-0.305,0.05-0.677,0.013-1.036c-0.092-0.705-0.257-1.523-0.444-2.174c-0.25-0.607-0.936-1.044-1.592-1.285l-0.173-0.063
							l-0.008-0.174c-0.024-0.58-0.063-1.176-0.129-1.769c-0.033-0.296-0.071-0.595-0.133-0.878
							c-0.031-0.134-0.069-0.288-0.114-0.37c-0.032-0.065-0.018-0.017-0.063-0.059c-0.054-0.022-0.096-0.052-0.168-0.07
							c-1.111-0.306-2.422-0.352-3.662-0.413l-0.261-0.013l0.008-0.257c0.019-0.617,0.045-1.306,0.017-1.954
							c0.017-0.171-0.14-0.43-0.232-0.67c-0.107-0.241-0.223-0.479-0.344-0.713c-0.241-0.466-0.507-0.921-0.817-1.32
							c-0.155-0.195-0.326-0.385-0.508-0.499c-0.204-0.122-0.29-0.15-0.532-0.061c-0.465,0.163-0.944,0.414-1.41,0.646
							c-1.866,0.971-3.68,2.032-5.458,3.088l-0.261,0.155l-0.112-0.28c-0.945-2.368-1.879-4.707-2.8-7.011
							c-0.46-1.152-0.916-2.296-1.369-3.432c-0.165-0.574-0.566-0.897-1.099-1.028c-0.529-0.136-1.054,0.028-1.302,0.477
							c-0.125,0.212-0.179,0.467-0.152,0.712c0.029,0.223,0.14,0.56,0.205,0.833c0.151,0.577,0.302,1.151,0.452,1.723
							c0.301,1.143,0.598,2.276,0.893,3.398c0.59,2.245,1.168,4.446,1.733,6.602l0.01,0.035l-0.002,0.036
							c-0.199,4.106-0.39,8.047-0.571,11.799l-0.002,0.028l-0.008,0.025c-3.778,12.297-6.913,22.496-9.11,29.645
							c-1.104,3.542-1.971,6.328-2.57,8.251c-0.298,0.932-0.528,1.653-0.691,2.164c-0.16,0.488-0.259,0.735-0.259,0.735
							s0.056-0.26,0.194-0.755c0.149-0.515,0.359-1.243,0.631-2.183c0.572-1.932,1.402-4.729,2.457-8.286
							c2.154-7.162,5.229-17.379,8.935-29.698l-0.01,0.053c0.171-3.753,0.35-7.694,0.535-11.801l0.008,0.071
							c-0.571-2.154-1.154-4.354-1.749-6.598c-0.297-1.122-0.597-2.254-0.899-3.396c-0.151-0.571-0.303-1.145-0.456-1.722
							c-0.071-0.306-0.162-0.537-0.219-0.906c-0.038-0.35,0.036-0.712,0.216-1.018c0.181-0.307,0.459-0.556,0.811-0.682
							c0.35-0.116,0.7-0.105,1.033-0.032c0.331,0.079,0.654,0.227,0.916,0.466c0.268,0.22,0.449,0.599,0.539,0.862
							c0.454,1.135,0.912,2.278,1.374,3.43c0.923,2.304,1.858,4.642,2.807,7.01l-0.372-0.126c1.787-1.063,3.597-2.123,5.487-3.107
							c0.481-0.239,0.943-0.486,1.483-0.678c0.146-0.042,0.291-0.095,0.503-0.071c0.183,0.026,0.351,0.099,0.475,0.189
							c0.269,0.174,0.456,0.393,0.634,0.612c0.346,0.444,0.62,0.92,0.872,1.405c0.125,0.243,0.244,0.489,0.355,0.739
							c0.093,0.258,0.26,0.47,0.277,0.848c0.031,0.709,0.003,1.375-0.016,2.008l-0.252-0.27c1.286,0.07,2.532,0.091,3.818,0.443
							c0.078,0.02,0.171,0.069,0.258,0.112c0.077,0.039,0.238,0.18,0.258,0.262c0.098,0.192,0.124,0.344,0.165,0.506
							c0.067,0.317,0.106,0.625,0.142,0.931c0.066,0.613,0.105,1.211,0.131,1.807l-0.18-0.237c0.773,0.293,1.539,0.742,1.911,1.58
							c0.241,0.824,0.368,1.519,0.479,2.314c0.037,0.391,0.074,0.787-0.024,1.215c-0.042,0.208-0.151,0.45-0.363,0.618
							c-0.208,0.151-0.338,0.199-0.51,0.303c-0.647,0.362-1.287,0.72-1.916,1.071l0.132-0.197c-0.226,2.09-0.438,4.148-0.715,6.175
							l-0.063,0.388c-0.01,0.12-0.104,0.34-0.185,0.436c-0.159,0.232-0.326,0.418-0.493,0.614c-0.337,0.383-0.682,0.749-1.026,1.109
							c-0.692,0.719-1.387,1.414-2.081,2.093l0.067-0.12c-2.199,9.283-4.241,17.901-6.068,25.61
							c-0.916,3.852-1.778,7.475-2.579,10.841c-0.399,1.677-0.766,3.317-1.322,4.822c-0.542,1.508-1.188,2.902-1.903,4.169
							c-1.439,2.535-3.163,4.542-4.868,6.052c-1.752,1.499-3.687,2.157-5.254,2.344c-1.585,0.189-2.816-0.076-3.583-0.362
							c-0.388-0.144-0.67-0.276-0.851-0.385C333.099,211.522,333.007,211.468,333.01,211.462z"/>
					</g>
					<g>
						<path class="st2" d="M359.898,137.349c-0.004,0.073-0.339,0.111-0.866,0.136c-0.526,0.03-1.25,0.045-1.993,0.236
							c-0.738,0.191-1.338,0.562-1.696,0.906c-0.366,0.341-0.525,0.631-0.6,0.6c-0.06-0.019-0.019-0.384,0.324-0.845
							c0.334-0.461,1.001-0.951,1.841-1.166c0.837-0.213,1.605-0.164,2.138-0.1C359.581,137.186,359.902,137.278,359.898,137.349z"
							/>
					</g>
					<g>
						
							<ellipse transform="matrix(-0.3507 0.9365 -0.9365 -0.3507 610.6356 -149.6344)" class="st2" cx="357.188" cy="136.859" rx="0.639" ry="0.26"/>
					</g>
					<g>
						<path class="st2" d="M364.583,141.089c-0.002,0.151-1.339,0.307-2.968,0.411c-0.806,0.071-1.412,0.361-1.651,0.795
							c-0.265,0.409-0.176,0.748-0.252,0.77c-0.049,0.045-0.319-0.337-0.077-0.935c0.112-0.282,0.357-0.595,0.715-0.794
							c0.353-0.203,0.779-0.303,1.203-0.353C363.234,140.874,364.587,140.953,364.583,141.089z"/>
					</g>
					<g>
						
							<ellipse transform="matrix(0.0449 -0.999 0.999 0.0449 201.3172 503.2275)" class="st2" cx="363.843" cy="146.326" rx="1.641" ry="0.261"/>
					</g>
				</g>
			</g>
		</g>
		<g>
			<path class="st12" d="M368.074,171.621l0.889-3.066c0.179-0.615,0.954-0.811,1.402-0.353l1.16,1.184l0.725-2.883
				c0.191-0.76,1.229-0.865,1.567-0.158l1.637,3.414L368.074,171.621z"/>
			<g>
				
					<ellipse transform="matrix(0.9707 -0.2403 0.2403 0.9707 -30.4284 94.4135)" class="st12" cx="371.875" cy="171.961" rx="3.703" ry="0.26"/>
			</g>
		</g>
		<g>
			<path class="st12" d="M316.001,153.977c0.024,0.021-0.372,0.385-0.889,1.188c-0.513,0.802-1.08,2.088-1.355,3.776
				c-0.294,1.684-0.308,3.731-0.181,5.991c0.11,2.263,0.294,4.748,0.57,7.348c0.549,5.203,1.393,9.87,2.11,13.221
				c0.355,1.677,0.676,3.027,0.897,3.96c0.1,0.414,0.184,0.768,0.258,1.074c0.057,0.246,0.076,0.378,0.076,0.378
				s-0.047-0.125-0.117-0.368c-0.084-0.303-0.182-0.654-0.296-1.064c-0.245-0.927-0.588-2.273-0.962-3.948
				c-0.756-3.347-1.625-8.018-2.174-13.23c-0.277-2.604-0.455-5.094-0.555-7.361c-0.116-2.264-0.089-4.328,0.227-6.025
				c0.298-1.702,0.894-2.998,1.434-3.795C315.588,154.323,316.001,153.977,316.001,153.977z"/>
		</g>
		<g>
			<path class="st12" d="M337.045,140.382c0.003,0.006-0.074,0.049-0.225,0.123c-0.203,0.097-0.42,0.201-0.66,0.315
				c-0.572,0.272-1.398,0.675-2.391,1.223c-1.998,1.075-4.661,2.734-7.515,4.696c-2.854,1.963-5.386,3.818-7.234,5.139
				c-0.85,0.602-1.58,1.119-2.195,1.555c-0.22,0.149-0.418,0.285-0.604,0.412c-0.14,0.092-0.215,0.138-0.22,0.132
				c-0.004-0.006,0.063-0.063,0.195-0.167c0.179-0.137,0.37-0.283,0.581-0.443c0.604-0.451,1.322-0.986,2.156-1.608
				c1.826-1.351,4.345-3.226,7.203-5.192c2.858-1.965,5.541-3.61,7.563-4.654c1.004-0.533,1.843-0.917,2.427-1.167
				c0.246-0.102,0.469-0.193,0.677-0.28C336.96,140.404,337.043,140.375,337.045,140.382z"/>
		</g>
		<g>
			<path class="st12" d="M384.737,146.887c-0.005,0.005-0.063-0.039-0.167-0.126c-0.144-0.124-0.292-0.252-0.45-0.39
				c-0.394-0.333-0.979-0.8-1.751-1.306c-1.528-1.037-3.811-2.206-6.429-3.253c-2.621-1.047-5.071-1.791-6.854-2.28
				c-0.892-0.248-1.618-0.43-2.121-0.554c-0.203-0.052-0.394-0.101-0.577-0.147c-0.132-0.036-0.2-0.058-0.199-0.065
				c0.002-0.007,0.073,0.001,0.207,0.024c0.188,0.035,0.381,0.071,0.588,0.109c0.508,0.1,1.241,0.26,2.14,0.49
				c1.798,0.454,4.263,1.178,6.895,2.229c2.629,1.052,4.916,2.25,6.434,3.325C383.984,146.001,384.737,146.887,384.737,146.887z"/>
		</g>
		<g>
			<path class="st12" d="M337.329,223.22c-0.005,0.012-0.146-0.031-0.39-0.134s-0.591-0.272-0.992-0.531
				c-0.785-0.497-1.854-1.473-2.175-2.945c-0.331-1.443-0.021-2.806,0.387-3.66c0.202-0.433,0.415-0.758,0.579-0.967
				c0.164-0.209,0.269-0.313,0.278-0.305c0.034,0.024-0.361,0.468-0.723,1.331c-0.362,0.848-0.637,2.167-0.318,3.554
				c0.304,1.399,1.303,2.349,2.055,2.87C336.797,222.967,337.346,223.184,337.329,223.22z"/>
		</g>
		<g>
			
				<ellipse transform="matrix(-0.2805 -0.9598 0.9598 -0.2805 223.2746 594.7102)" class="st12" cx="334.521" cy="213.677" rx="1.338" ry="0.104"/>
		</g>
		<g>
			<g>
				<path class="st5" d="M347.667,436.598l30.504-0.153l-0.554-105.458l-0.284-107.271l-41.313-0.513l-7.427,14.002
					c-2.996,5.649-5.033,11.788-5.714,18.146c-0.52,4.846,3.111,20.65,4.38,24.672l11.371,36.061L347.667,436.598z"/>
				<path class="st5" d="M386.283,223.861l33.517,91.371c3.936,12.245,2.62,24.387-4.132,35.699l-38.915,75.955l-21.879-27.373
					l32.56-68.043l-28.704-46.505l4.83-61.007l13.521-0.217L386.283,223.861z"/>
			</g>
			<g>
				<path class="st14" d="M374.546,254.471c0,0,0.025,0.158,0.048,0.469c0.021,0.333,0.05,0.79,0.086,1.377
					c0.066,1.235,0.161,3.016,0.283,5.297c0.224,4.625,0.545,11.276,0.941,19.486c0.38,8.234,0.83,18.029,1.331,28.903
					c0.244,5.44,0.501,11.149,0.768,17.068c0.19,2.959,0.104,5.976,0.139,9.035c0.009,3.06,0.019,6.164,0.028,9.306
					c0.042,25.131,0.08,47.88,0.107,64.373c-0.011,8.218-0.021,14.877-0.026,19.507c-0.015,2.284-0.026,4.066-0.034,5.304
					c-0.009,0.588-0.017,1.046-0.021,1.379c-0.008,0.311-0.025,0.47-0.025,0.47s-0.019-0.158-0.028-0.47
					c-0.007-0.333-0.017-0.791-0.029-1.379c-0.016-1.237-0.037-3.02-0.064-5.303c-0.033-4.63-0.08-11.288-0.139-19.505
					c-0.066-16.491-0.158-39.237-0.26-64.366c-0.009-3.141-0.018-6.245-0.025-9.305c-0.034-3.059,0.056-6.075-0.131-9.033
					c-0.256-5.918-0.503-11.628-0.737-17.067c-0.459-10.874-0.872-20.669-1.219-28.904c-0.327-8.211-0.593-14.864-0.777-19.49
					c-0.079-2.283-0.142-4.064-0.185-5.301c-0.015-0.589-0.026-1.047-0.035-1.38C374.536,254.631,374.546,254.471,374.546,254.471z"
					/>
			</g>
			<g>
				<path class="st14" d="M373.783,225.664c0.036-0.004,0.109,0.35,0.212,0.993c0.104,0.644,0.228,1.578,0.36,2.734
					c0.268,2.313,0.548,5.52,0.71,9.07c0.158,3.552,0.168,6.771,0.11,9.099c-0.029,1.164-0.068,2.105-0.113,2.755
					c-0.044,0.65-0.086,1.009-0.122,1.008c-0.075-0.002-0.096-1.441-0.133-3.765c-0.037-2.324-0.104-5.533-0.263-9.074
					c-0.161-3.54-0.383-6.742-0.556-9.059C373.817,227.108,373.708,225.672,373.783,225.664z"/>
			</g>
			<g>
				<path class="st14" d="M367.061,227.723c0.054,0.065-0.52,0.325-0.676,1.14c-0.074,0.389,0.008,0.886,0.388,1.219
					c0.36,0.336,0.992,0.504,1.5,0.274c0.506-0.234,0.792-0.822,0.772-1.315c-0.004-0.505-0.326-0.891-0.669-1.09
					c-0.72-0.413-1.29-0.149-1.305-0.232c-0.015-0.027,0.096-0.132,0.354-0.208c0.254-0.074,0.67-0.092,1.121,0.113
					c0.44,0.187,0.94,0.69,0.979,1.392c0.05,0.667-0.289,1.457-1.035,1.813c-0.758,0.332-1.577,0.072-2.049-0.401
					c-0.507-0.486-0.561-1.194-0.415-1.649c0.14-0.476,0.425-0.779,0.647-0.923C366.899,227.708,367.05,227.694,367.061,227.723z"/>
			</g>
			<g>
				<path class="st14" d="M351.058,225.911c0.028-0.007,0.151,0.327,0.274,0.957c0.125,0.629,0.202,1.568,0.088,2.718
					c-0.109,1.149-0.457,2.506-1.154,3.875c-0.691,1.366-1.767,2.727-3.208,3.778c-1.456,1.03-3.091,1.614-4.606,1.832
					c-1.52,0.223-2.917,0.118-4.04-0.146c-1.126-0.26-1.99-0.633-2.547-0.953c-0.558-0.317-0.835-0.542-0.818-0.565
					c0.049-0.102,1.229,0.744,3.438,1.158c2.155,0.43,5.479,0.235,8.27-1.749c2.771-2.009,4.02-5.096,4.301-7.275
					C351.37,227.314,350.946,225.925,351.058,225.911z"/>
			</g>
			<g>
				<path class="st14" d="M390.295,234.666c0.001,0.05-0.757,0.107-1.921-0.228c-1.159-0.325-2.685-1.144-3.937-2.517
					c-1.247-1.379-1.914-2.977-2.126-4.162c-0.221-1.191-0.091-1.94-0.041-1.934c0.093-0.001,0.098,0.735,0.399,1.85
					c0.294,1.114,0.974,2.589,2.153,3.896c1.187,1.299,2.589,2.119,3.669,2.519C389.573,234.497,390.305,234.573,390.295,234.666z"
					/>
			</g>
			<g>
				<path class="st14" d="M402.208,333.172c0.035,0.046-0.577,0.657-1.768,1.406c-0.598,0.364-1.353,0.762-2.275,0.994
					c-0.913,0.237-2.019,0.269-3.07-0.082c-2.129-0.702-3.458-2.303-4.271-3.399c-0.814-1.134-1.225-1.887-1.173-1.924
					c0.064-0.047,0.587,0.639,1.462,1.696c0.874,1.027,2.192,2.494,4.142,3.131c1.956,0.654,3.831-0.114,5.004-0.736
					C401.461,333.613,402.159,333.103,402.208,333.172z"/>
			</g>
			<g>
				
					<ellipse transform="matrix(0.5796 0.8149 -0.8149 0.5796 437.5416 -178.359)" class="st14" cx="391.629" cy="334.868" rx="5.081" ry="0.26"/>
			</g>
			<g>
				
					<ellipse transform="matrix(0.3714 0.9285 -0.9285 0.3714 453.724 -156.9388)" class="st7" cx="342.771" cy="256.635" rx="1.489" ry="0.26"/>
			</g>
			<g>
				<ellipse class="st7" cx="362.688" cy="259.678" rx="0.261" ry="1.106"/>
			</g>
			<g>
				
					<ellipse transform="matrix(0.0676 0.9977 -0.9977 0.0676 599.9454 -102.1678)" class="st7" cx="354.637" cy="269.915" rx="1.386" ry="0.26"/>
			</g>
			<g>
				<path class="st7" d="M340.19,279.041c-0.118,0.088-0.531-0.28-1.066-0.665c-0.531-0.391-1.009-0.67-0.962-0.811
					c0.039-0.134,0.662-0.054,1.268,0.39C340.038,278.394,340.305,278.961,340.19,279.041z"/>
			</g>
			<g>
				
					<ellipse transform="matrix(-0.5548 0.832 -0.832 -0.5548 809.242 142.9463)" class="st7" cx="366.376" cy="287.984" rx="0.997" ry="0.261"/>
			</g>
			<g>
				<ellipse class="st7" cx="349.963" cy="289.736" rx="0.26" ry="1.844"/>
			</g>
			<g>
				
					<ellipse transform="matrix(0.8088 0.588 -0.588 0.8088 243.3447 -144.428)" class="st7" cx="343.809" cy="302.06" rx="1.254" ry="0.26"/>
			</g>
			<g>
				
					<ellipse transform="matrix(0.9138 -0.4061 0.4061 0.9138 -93.6767 172.6565)" class="st7" cx="360.014" cy="307.07" rx="0.908" ry="0.26"/>
			</g>
			<g>
				
					<ellipse transform="matrix(0.4472 0.8944 -0.8944 0.4472 481.9472 -133.5793)" class="st7" cx="349.042" cy="323.114" rx="2.061" ry="0.26"/>
			</g>
			<g>
				
					<ellipse transform="matrix(-0.4706 0.8823 -0.8823 -0.4706 825.8168 148.3502)" class="st7" cx="368.404" cy="321.915" rx="1.568" ry="0.261"/>
			</g>
			<g>
				<path class="st7" d="M359.921,338.788c-0.147-0.021-0.136-0.811-0.289-1.749c-0.144-0.94-0.397-1.688-0.264-1.754
					c0.12-0.068,0.618,0.64,0.778,1.673C360.313,337.988,360.057,338.816,359.921,338.788z"/>
			</g>
			<g>
				
					<ellipse transform="matrix(0.6728 0.7398 -0.7398 0.6728 371.1696 -146.0425)" class="st7" cx="350.701" cy="346.625" rx="1.371" ry="0.261"/>
			</g>
			<g>
				
					<ellipse transform="matrix(-0.7016 0.7125 -0.7125 -0.7016 883.6906 329.9225)" class="st7" cx="372.771" cy="349.977" rx="1.434" ry="0.26"/>
			</g>
			<g>
				
					<ellipse transform="matrix(-0.15 0.9887 -0.9887 -0.15 772.988 60.629)" class="st7" cx="360.433" cy="362.584" rx="1.683" ry="0.26"/>
			</g>
			<g>
				
					<ellipse transform="matrix(0.5053 0.8629 -0.8629 0.5053 492.6958 -120.708)" class="st7" cx="351.634" cy="369.393" rx="1.487" ry="0.261"/>
			</g>
			<g>
				
					<ellipse transform="matrix(0.8132 -0.582 0.582 0.8132 -151.9016 286.2166)" class="st7" cx="369.873" cy="379.717" rx="1.586" ry="0.26"/>
			</g>
			<g>
				<path class="st7" d="M355.523,389.325c-0.14-0.051,0.039-0.856,0.122-1.852c0.092-0.994,0.058-1.818,0.204-1.844
					c0.136-0.029,0.412,0.816,0.314,1.89C356.072,388.593,355.652,389.377,355.523,389.325z"/>
			</g>
			<g>
				
					<ellipse transform="matrix(0.6246 0.7809 -0.7809 0.6246 450.6222 -130.4689)" class="st7" cx="361.028" cy="403.515" rx="1.181" ry="0.261"/>
			</g>
			<g>
				
					<ellipse transform="matrix(0.5665 0.824 -0.824 0.5665 493.8252 -112.5856)" class="st7" cx="353.929" cy="413.104" rx="1.79" ry="0.261"/>
			</g>
			<g>
				
					<ellipse transform="matrix(-0.3508 0.9365 -0.9365 -0.3508 880.8608 191.5609)" class="st7" cx="374.029" cy="401.117" rx="0.788" ry="0.261"/>
			</g>
			<g>
				<path class="st7" d="M365.454,426.012c-0.131-0.069,0.119-0.781,0.313-1.672c0.201-0.89,0.275-1.641,0.424-1.647
					c0.139-0.012,0.302,0.792,0.084,1.761C366.063,425.422,365.574,426.082,365.454,426.012z"/>
			</g>
			<g>
				
					<ellipse transform="matrix(0.4239 0.9057 -0.9057 0.4239 458.3127 -179.6467)" class="st7" cx="370.374" cy="270.45" rx="1.114" ry="0.26"/>
			</g>
			<g>
				<path class="st7" d="M356.971,240.315c0.079,0.126-0.625,0.689-1.368,1.489c-0.751,0.793-1.267,1.532-1.398,1.461
					c-0.124-0.06,0.214-0.965,1.019-1.817C356.022,240.591,356.904,240.195,356.971,240.315z"/>
			</g>
			<g>
				<path class="st7" d="M369.327,239.946c-0.146,0.03-0.381-0.564-0.728-1.25c-0.34-0.688-0.674-1.233-0.563-1.332
					c0.102-0.096,0.652,0.34,1.029,1.099C369.446,239.22,369.464,239.923,369.327,239.946z"/>
			</g>
			<g>
				
					<ellipse transform="matrix(-0.3678 0.9299 -0.9299 -0.3678 684.5433 32.0389)" class="st7" cx="331.38" cy="248.722" rx="1.49" ry="0.26"/>
			</g>
			<g>
				
					<ellipse transform="matrix(0.7681 0.6403 -0.6403 0.7681 245.977 -150.6404)" class="st7" cx="330.97" cy="264.288" rx="1.44" ry="0.26"/>
			</g>
			<g>
				
					<ellipse transform="matrix(0.3717 0.9283 -0.9283 0.3717 435.3854 -188.5181)" class="st7" cx="356.971" cy="227.407" rx="0.993" ry="0.261"/>
			</g>
			<g>
				
					<ellipse transform="matrix(-0.2138 0.9769 -0.9769 -0.2138 692.4429 -88.442)" class="st7" cx="381.811" cy="234.422" rx="1.32" ry="0.261"/>
			</g>
			<g>
				
					<ellipse transform="matrix(-0.3808 0.9247 -0.9247 -0.3808 762.6266 -19.5493)" class="st7" cx="387.859" cy="245.571" rx="1.695" ry="0.26"/>
			</g>
			<g>
				
					<ellipse transform="matrix(0.4473 0.8944 -0.8944 0.4473 439.1012 -201.1758)" class="st7" cx="382.327" cy="254.699" rx="1.856" ry="0.26"/>
			</g>
			<g>
				
					<ellipse transform="matrix(-0.359 0.9333 -0.9333 -0.359 779.8798 -6.8286)" class="st7" cx="392.285" cy="264.38" rx="1.284" ry="0.261"/>
			</g>
			<g>
				
					<ellipse transform="matrix(0.5298 0.8481 -0.8481 0.5298 412.6318 -196.5795)" class="st7" cx="383.618" cy="273.877" rx="0.87" ry="0.26"/>
			</g>
			<g>
				
					<ellipse transform="matrix(0.6806 0.7327 -0.7327 0.6806 336.7432 -188.4819)" class="st7" cx="384.533" cy="291.955" rx="1.761" ry="0.261"/>
			</g>
			<g>
				
					<ellipse transform="matrix(0.6177 0.7864 -0.7864 0.6177 372.1126 -203.0038)" class="st7" cx="394.866" cy="281.253" rx="1.642" ry="0.26"/>
			</g>
			<g>
				
					<ellipse transform="matrix(-0.4284 0.9036 -0.9036 -0.4284 841.725 59.0324)" class="st7" cx="402.191" cy="295.749" rx="1.732" ry="0.26"/>
			</g>
			<g>
				<path class="st7" d="M389.611,309.467c-0.127,0.077-0.592-0.479-1.235-1.066c-0.638-0.595-1.229-1.014-1.162-1.146
					c0.058-0.126,0.814,0.112,1.516,0.764C389.434,308.666,389.733,309.401,389.611,309.467z"/>
			</g>
			<g>
				<ellipse class="st7" cx="389.242" cy="322.007" rx="1.106" ry="0.261"/>
			</g>
			<g>
				<path class="st7" d="M402.519,318.503c-0.126-0.078,0.131-0.701,0.322-1.486c0.201-0.784,0.268-1.454,0.416-1.464
					c0.138-0.016,0.311,0.715,0.09,1.59C403.13,318.019,402.634,318.583,402.519,318.503z"/>
			</g>
			<g>
				
					<ellipse transform="matrix(0.3311 0.9436 -0.9436 0.3311 579.8958 -175.9228)" class="st7" cx="414.032" cy="321.057" rx="1.749" ry="0.26"/>
			</g>
			<g>
				
					<ellipse transform="matrix(-0.4644 0.8856 -0.8856 -0.4644 905.1567 128.8905)" class="st7" cx="413.604" cy="338.153" rx="1.98" ry="0.261"/>
			</g>
			<g>
				
					<ellipse transform="matrix(0.3798 0.9251 -0.9251 0.3798 570.9263 -154.8765)" class="st7" cx="400.973" cy="348.368" rx="1.78" ry="0.26"/>
			</g>
			<g>
				<ellipse class="st7" cx="388.504" cy="353.91" rx="0.922" ry="0.26"/>
			</g>
			<g>
				
					<ellipse transform="matrix(0.2576 0.9663 -0.9663 0.2576 650.1707 -109.0724)" class="st7" cx="396.065" cy="368.57" rx="1.431" ry="0.26"/>
			</g>
			<g>
				
					<ellipse transform="matrix(-0.5146 0.8575 -0.8575 -0.5146 899.697 218.0128)" class="st7" cx="388.136" cy="363.683" rx="1.075" ry="0.26"/>
			</g>
			<g>
				
					<ellipse transform="matrix(0.1169 0.9931 -0.9931 0.1169 720.0573 -48.3428)" class="st7" cx="387.213" cy="380.741" rx="1.578" ry="0.261"/>
			</g>
		</g>
	</g>
</g>
</svg>
